ISO-10303-21;
HEADER;
FILE_DESCRIPTION(('ViewDefinition [ReferenceView_V1.2]','Order ID: 000000'),'2;1');
FILE_NAME('','2026-03-07T14:24:03',('3D-omgeving.nl'),('On-Track B.V.'),'OnTrack IFC Toolkit','OnTrack - 3Domgeving - 0.1.0-dev+local','none');
FILE_SCHEMA(('IFC4'));
ENDSEC;
DATA;
#1=IFCPERSON($,'On-Track B.V.','3D-omgeving',$,$,$,$,$);
#2=IFCORGANIZATION($,'On-Track B.V.',$,$,$);
#3=IFCPERSONANDORGANIZATION(#1,#2,$);
#4=IFCAPPLICATION(#2,'0.1.0','3D-omgeving.nl','3Domgeving');
#5=IFCOWNERHISTORY(#3,#4,$,.NOCHANGE.,1772889843,#3,#4,1772889843);
#6=IFCCARTESIANPOINT((0.,0.,0.));
#7=IFCDIRECTION((0.,0.,1.));
#8=IFCDIRECTION((1.,0.,0.));
#9=IFCAXIS2PLACEMENT3D(#6,#7,#8);
#10=IFCGEOMETRICREPRESENTATIONCONTEXT($,'Model',3,1.E-05,#9,$);
#11=IFCSIUNIT(*,.LENGTHUNIT.,$,.METRE.);
#12=IFCSIUNIT(*,.AREAUNIT.,$,.SQUARE_METRE.);
#13=IFCSIUNIT(*,.VOLUMEUNIT.,$,.CUBIC_METRE.);
#14=IFCUNITASSIGNMENT((#11,#12,#13));
#15=IFCPROJECT('1eYoOIF1PCmul0HLsjEnt9',#5,'S1 DEMO','3D-omgeving.nl - ID: 000000',$,$,$,(#10),#14);
#16=IFCGEOMETRICREPRESENTATIONSUBCONTEXT('Body','Model',*,*,*,*,#10,$,.MODEL_VIEW.,$);
#17=IFCCARTESIANPOINT((0.,0.,0.));
#18=IFCAXIS2PLACEMENT3D(#17,$,$);
#19=IFCLOCALPLACEMENT($,#18);
#20=IFCSITE('3Kp4w4Y0T4ihTJoe3t2GzH',#5,'Locatie',$,$,#19,$,$,.ELEMENT.,$,$,$,$,$);
#21=IFCCARTESIANPOINT((0.,0.,0.));
#22=IFCAXIS2PLACEMENT3D(#21,$,$);
#23=IFCLOCALPLACEMENT(#19,#22);
#24=IFCBUILDING('0C8iM0Brf0UeRBp3UQ_kLz',#5,'Gebouw',$,$,#23,$,$,.ELEMENT.,$,$,$);
#25=IFCCARTESIANPOINT((0.,0.,0.));
#26=IFCAXIS2PLACEMENT3D(#25,$,$);
#27=IFCLOCALPLACEMENT(#23,#26);
#28=IFCBUILDINGSTOREY('1Ch_R7mNn2ouVluenBBpi6',#5,'Ground Level',$,$,#27,$,$,.ELEMENT.,0.);
#29=IFCRELAGGREGATES('0Wobs3NCL4mxRp4e$QXyW4',#5,'ProjectContainer',$,#15,(#20));
#30=IFCRELAGGREGATES('2Tupxu90X3KggJm6Q59EfL',#5,'SiteContainer',$,#20,(#24));
#31=IFCRELAGGREGATES('1_GiCvp8z8NgEeLErJFRKP',#5,'BuildingContainer',$,#24,(#28));
#32=IFCPROJECTEDCRS('EPSG:28992','Amersfoort / RD New','Amersfoort',$,$,$,#11);
#33=IFCMAPCONVERSION(#10,#32,160071.588418626,384156.389179893,18.753,0.637921483011472,-0.770101409888622,$);
#34=IFCCARTESIANPOINTLIST3D(((-0.16399,0.,0.025),(-0.,0.081995,0.025),(-0.,0.2497,0.025),(-0.4994,0.,0.025),(-0.16399,0.,-0.),(-0.4994,0.,-0.),(-0.,0.2497,-0.),(-0.,0.081995,-0.)));
#35=IFCINDEXEDPOLYGONALFACE((1,2,3,4));
#36=IFCINDEXEDPOLYGONALFACE((5,6,7,8));
#37=IFCINDEXEDPOLYGONALFACE((1,4,6,5));
#38=IFCINDEXEDPOLYGONALFACE((4,3,7,6));
#39=IFCINDEXEDPOLYGONALFACE((3,2,8,7));
#40=IFCINDEXEDPOLYGONALFACE((2,1,5,8));
#41=IFCPOLYGONALFACESET(#34,.F.,(#35,#36,#37,#38,#39,#40),$);
#42=IFCCOLOURRGB($,0.345098039215686,0.619607843137255,0.650980392156863);
#43=IFCSURFACESTYLERENDERING(#42,0.,$,$,$,$,$,$,.NOTDEFINED.);
#44=IFCSURFACESTYLE($,.BOTH.,(#43));
#45=IFCSTYLEDITEM(#41,(#44),$);
#46=IFCCARTESIANPOINTLIST3D(((0.16399,-0.,0.025),(-0.,-0.081995,0.025),(-0.,-0.2497,0.025),(0.4994,0.,0.025),(0.16399,-0.,-0.),(0.4994,0.,-0.),(-0.,-0.2497,-0.),(-0.,-0.081995,-0.)));
#47=IFCINDEXEDPOLYGONALFACE((1,2,3,4));
#48=IFCINDEXEDPOLYGONALFACE((5,6,7,8));
#49=IFCINDEXEDPOLYGONALFACE((1,4,6,5));
#50=IFCINDEXEDPOLYGONALFACE((4,3,7,6));
#51=IFCINDEXEDPOLYGONALFACE((3,2,8,7));
#52=IFCINDEXEDPOLYGONALFACE((2,1,5,8));
#53=IFCPOLYGONALFACESET(#46,.F.,(#47,#48,#49,#50,#51,#52),$);
#54=IFCCOLOURRGB($,0.0470588235294118,0.149019607843137,0.349019607843137);
#55=IFCSURFACESTYLERENDERING(#54,0.,$,$,$,$,$,$,.NOTDEFINED.);
#56=IFCSURFACESTYLE($,.BOTH.,(#55));
#57=IFCSTYLEDITEM(#53,(#56),$);
#58=IFCCARTESIANPOINTLIST3D(((-0.,-0.081995,0.025),(-0.,-0.2497,0.025),(-0.,-0.2497,0.),(-0.,-0.081995,0.),(-0.4994,-0.,0.025),(-0.16399,-0.,0.025),(-0.16399,-0.,0.),(-0.4994,-0.,0.)));
#59=IFCINDEXEDPOLYGONALFACE((1,2,3,4));
#60=IFCINDEXEDPOLYGONALFACE((5,6,7,8));
#61=IFCINDEXEDPOLYGONALFACE((6,1,4,7));
#62=IFCINDEXEDPOLYGONALFACE((3,8,7,4));
#63=IFCINDEXEDPOLYGONALFACE((2,5,8,3));
#64=IFCINDEXEDPOLYGONALFACE((2,1,6,5));
#65=IFCPOLYGONALFACESET(#58,.F.,(#59,#60,#61,#62,#63,#64),$);
#66=IFCCOLOURRGB($,0.949019607843137,0.56078431372549,0.219607843137255);
#67=IFCSURFACESTYLERENDERING(#66,0.,$,$,$,$,$,$,.NOTDEFINED.);
#68=IFCSURFACESTYLE($,.BOTH.,(#67));
#69=IFCSTYLEDITEM(#65,(#68),$);
#70=IFCCARTESIANPOINTLIST3D(((-0.08398,-0.572234,0.025),(-0.08398,-0.546188,0.025),(-0.08398,-0.546188,0.),(-0.08398,-0.572234,0.),(0.038255,-0.396435,0.025),(-0.071423,-0.396435,0.025),(-0.071423,-0.396435,0.),(0.038255,-0.396435,0.),(0.018733,-0.420323,0.025),(0.018733,-0.420323,0.),(-0.071423,-0.371321,0.025),(-0.071423,-0.371321,0.),(-0.053176,-0.54712,0.025),(0.072983,-0.54712,0.025),(0.072983,-0.54712,0.),(-0.053176,-0.54712,0.),(0.069844,-0.371321,0.),(0.069844,-0.396435,0.),(-0.042581,-0.534171,0.),(0.072983,-0.572234,0.),(0.072983,-0.572234,0.025),(-0.042581,-0.534171,0.025),(0.069844,-0.396435,0.025),(0.069844,-0.371321,0.025)));
#71=IFCINDEXEDPOLYGONALFACE((1,2,3,4));
#72=IFCINDEXEDPOLYGONALFACE((5,6,7,8));
#73=IFCINDEXEDPOLYGONALFACE((2,9,10,3));
#74=IFCINDEXEDPOLYGONALFACE((6,11,12,7));
#75=IFCINDEXEDPOLYGONALFACE((13,14,15,16));
#76=IFCINDEXEDPOLYGONALFACE((4,3,10,8,7,12,17,18,19,16,15,20));
#77=IFCINDEXEDPOLYGONALFACE((14,21,20,15));
#78=IFCINDEXEDPOLYGONALFACE((22,13,16,19));
#79=IFCINDEXEDPOLYGONALFACE((1,21,14,13,22,23,24,11,6,5,9,2));
#80=IFCINDEXEDPOLYGONALFACE((9,5,8,10));
#81=IFCINDEXEDPOLYGONALFACE((23,22,19,18));
#82=IFCINDEXEDPOLYGONALFACE((24,23,18,17));
#83=IFCINDEXEDPOLYGONALFACE((21,1,4,20));
#84=IFCINDEXEDPOLYGONALFACE((11,24,17,12));
#85=IFCPOLYGONALFACESET(#70,.F.,(#71,#72,#73,#74,#75,#76,#77,#78,#79,#80,#81,#82,#83,#84),$);
#86=IFCCOLOURRGB($,0.0470588235294118,0.149019607843137,0.349019607843137);
#87=IFCSURFACESTYLERENDERING(#86,0.,$,$,$,$,$,$,.NOTDEFINED.);
#88=IFCSURFACESTYLE($,.BOTH.,(#87));
#89=IFCSTYLEDITEM(#85,(#88),$);
#90=IFCCARTESIANPOINTLIST3D(((0.74589,-0.104677,0.025),(0.719132,-0.101261,0.025),(0.719132,-0.101261,0.),(0.74589,-0.104677,0.),(0.771096,-0.101586,0.025),(0.771096,-0.101586,0.),(0.794524,-0.092316,0.025),(0.794524,-0.092316,0.),(0.838565,-0.030279,0.025),(0.82935,-0.05592,0.025),(0.82935,-0.05592,0.),(0.838565,-0.030279,0.),(0.8145,-0.077036,0.025),(0.8145,-0.077036,0.),(0.650142,-0.00373,0.025),(0.653012,-0.029426,0.025),(0.66162,-0.053737,0.025),(0.675796,-0.074866,0.025),(0.695367,-0.091016,0.025),(0.841637,-0.001424,0.025),(0.838719,0.02705,0.025),(0.829963,0.052336,0.025),(0.81564,0.073415,0.025),(0.79602,0.089271,0.025),(0.772389,0.099204,0.025),(0.746037,0.102515,0.025),(0.725843,0.100752,0.025),(0.707593,0.095464,0.025),(0.691287,0.08665,0.025),(0.676924,0.07431,0.025),(0.665207,0.058856,0.025),(0.656838,0.040698,0.025),(0.651816,0.019836,0.025),(0.675256,-0.003975,0.025),(0.680492,0.033604,0.025),(0.687038,0.047689,0.025),(0.696201,0.058639,0.025),(0.719169,0.07271,0.025),(0.746184,0.077401,0.025),(0.765626,0.074966,0.025),(0.783046,0.067664,0.025),(0.797485,0.055935,0.025),(0.807988,0.04022,0.025),(0.814389,0.021004,0.025),(0.816523,-0.001228,0.025),(0.811538,-0.034472,0.025),(0.805307,-0.047885,0.025),(0.796584,-0.059157,0.025),(0.773904,-0.074461,0.025),(0.745742,-0.079562,0.025),(0.717986,-0.07451,0.025),(0.695343,-0.059353,0.025),(0.680278,-0.035404,0.025),(0.650142,-0.00373,0.),(0.651816,0.019836,0.),(0.656838,0.040698,0.),(0.665207,0.058856,0.),(0.676924,0.07431,0.),(0.691287,0.08665,0.),(0.707593,0.095464,0.),(0.725843,0.100752,0.),(0.746037,0.102515,0.),(0.772389,0.099204,0.),(0.79602,0.089271,0.),(0.81564,0.073415,0.),(0.829963,0.052336,0.),(0.838719,0.02705,0.),(0.841637,-0.001424,0.),(0.695367,-0.091016,0.),(0.675796,-0.074866,0.),(0.66162,-0.053737,0.),(0.653012,-0.029426,0.),(0.675256,-0.003975,0.),(0.680278,-0.035404,0.),(0.695343,-0.059353,0.),(0.717986,-0.07451,0.),(0.745742,-0.079562,0.),(0.773904,-0.074461,0.),(0.796584,-0.059157,0.),(0.805307,-0.047885,0.),(0.811538,-0.034472,0.),(0.816523,-0.001228,0.),(0.814389,0.021004,0.),(0.807988,0.04022,0.),(0.797485,0.055935,0.),(0.783046,0.067664,0.),(0.765626,0.074966,0.),(0.746184,0.077401,0.),(0.719169,0.07271,0.),(0.696201,0.058639,0.),(0.687038,0.047689,0.),(0.680492,0.033604,0.)));
#91=IFCINDEXEDPOLYGONALFACE((1,2,3,4));
#92=IFCINDEXEDPOLYGONALFACE((5,1,4,6));
#93=IFCINDEXEDPOLYGONALFACE((7,5,6,8));
#94=IFCINDEXEDPOLYGONALFACE((9,10,11,12));
#95=IFCINDEXEDPOLYGONALFACE((10,13,14,11));
#96=IFCINDEXEDPOLYGONALFACE((15,16,17,18,19,2,1,5,7,13,10,9,20,21,22,23,24,25,26,27,28,29,30,31,32,33,34,35,36,37,38,39,40,41,42,43,44,45,46,47,48,49,50,51,52,53));
#97=IFCINDEXEDPOLYGONALFACE((54,55,56,57,58,59,60,61,62,63,64,65,66,67,68,12,11,14,8,6,4,3,69,70,71,72,73,74,75,76,77,78,79,80,81,82,83,84,85,86,87,88,89,90,91,92));
#98=IFCINDEXEDPOLYGONALFACE((18,17,71,70));
#99=IFCINDEXEDPOLYGONALFACE((23,22,66,65));
#100=IFCINDEXEDPOLYGONALFACE((24,23,65,64));
#101=IFCINDEXEDPOLYGONALFACE((17,16,72,71));
#102=IFCINDEXEDPOLYGONALFACE((16,15,54,72));
#103=IFCINDEXEDPOLYGONALFACE((26,25,63,62));
#104=IFCINDEXEDPOLYGONALFACE((28,27,61,60));
#105=IFCINDEXEDPOLYGONALFACE((27,26,62,61));
#106=IFCINDEXEDPOLYGONALFACE((38,37,90,89));
#107=IFCINDEXEDPOLYGONALFACE((29,28,60,59));
#108=IFCINDEXEDPOLYGONALFACE((39,38,89,88));
#109=IFCINDEXEDPOLYGONALFACE((40,39,88,87));
#110=IFCINDEXEDPOLYGONALFACE((25,24,64,63));
#111=IFCINDEXEDPOLYGONALFACE((36,35,92,91));
#112=IFCINDEXEDPOLYGONALFACE((37,36,91,90));
#113=IFCINDEXEDPOLYGONALFACE((35,34,73,92));
#114=IFCINDEXEDPOLYGONALFACE((48,47,80,79));
#115=IFCINDEXEDPOLYGONALFACE((47,46,81,80));
#116=IFCINDEXEDPOLYGONALFACE((46,45,82,81));
#117=IFCINDEXEDPOLYGONALFACE((45,44,83,82));
#118=IFCINDEXEDPOLYGONALFACE((44,43,84,83));
#119=IFCINDEXEDPOLYGONALFACE((43,42,85,84));
#120=IFCINDEXEDPOLYGONALFACE((42,41,86,85));
#121=IFCINDEXEDPOLYGONALFACE((41,40,87,86));
#122=IFCINDEXEDPOLYGONALFACE((34,53,74,73));
#123=IFCINDEXEDPOLYGONALFACE((53,52,75,74));
#124=IFCINDEXEDPOLYGONALFACE((52,51,76,75));
#125=IFCINDEXEDPOLYGONALFACE((51,50,77,76));
#126=IFCINDEXEDPOLYGONALFACE((50,49,78,77));
#127=IFCINDEXEDPOLYGONALFACE((49,48,79,78));
#128=IFCINDEXEDPOLYGONALFACE((15,33,55,54));
#129=IFCINDEXEDPOLYGONALFACE((33,32,56,55));
#130=IFCINDEXEDPOLYGONALFACE((19,18,70,69));
#131=IFCINDEXEDPOLYGONALFACE((2,19,69,3));
#132=IFCINDEXEDPOLYGONALFACE((32,31,57,56));
#133=IFCINDEXEDPOLYGONALFACE((13,7,8,14));
#134=IFCINDEXEDPOLYGONALFACE((30,29,59,58));
#135=IFCINDEXEDPOLYGONALFACE((31,30,58,57));
#136=IFCINDEXEDPOLYGONALFACE((20,9,12,68));
#137=IFCINDEXEDPOLYGONALFACE((22,21,67,66));
#138=IFCINDEXEDPOLYGONALFACE((21,20,68,67));
#139=IFCPOLYGONALFACESET(#90,.F.,(#91,#92,#93,#94,#95,#96,#97,#98,#99,#100,#101,#102,#103,#104,#105,#106,#107,#108,#109,#110,#111,#112,#113,#114,#115,#116,#117,#118,#119,#120,#121,#122,#123,#124,#125,#126,#127,#128,#129,#130,#131,#132,#133,#134,#135,#136,#137,#138),$);
#140=IFCCOLOURRGB($,0.0470588235294118,0.149019607843137,0.349019607843137);
#141=IFCSURFACESTYLERENDERING(#140,0.,$,$,$,$,$,$,.NOTDEFINED.);
#142=IFCSURFACESTYLE($,.BOTH.,(#141));
#143=IFCSTYLEDITEM(#139,(#142),$);
#144=IFCCARTESIANPOINTLIST3D(((-0.078481,0.400613,0.025),(-0.053367,0.400613,0.025),(-0.053367,0.559832,0.025),(0.051602,0.400613,0.025),(0.078481,0.400613,0.025),(0.078481,0.601526,0.025),(0.053367,0.601526,0.025),(0.053367,0.442355,0.025),(-0.051602,0.601526,0.025),(-0.078481,0.601526,0.025),(0.053367,0.442355,0.),(-0.051602,0.601526,0.),(0.078481,0.601526,0.),(0.053367,0.601526,0.),(-0.078481,0.400613,0.),(-0.053367,0.400613,0.),(-0.053367,0.559832,0.),(0.051602,0.400613,0.),(0.078481,0.400613,0.),(-0.078481,0.601526,0.)));
#145=IFCINDEXEDPOLYGONALFACE((1,2,3,4,5,6,7,8,9,10));
#146=IFCINDEXEDPOLYGONALFACE((9,8,11,12));
#147=IFCINDEXEDPOLYGONALFACE((7,6,13,14));
#148=IFCINDEXEDPOLYGONALFACE((2,1,15,16));
#149=IFCINDEXEDPOLYGONALFACE((3,2,16,17));
#150=IFCINDEXEDPOLYGONALFACE((5,4,18,19));
#151=IFCINDEXEDPOLYGONALFACE((6,5,19,13));
#152=IFCINDEXEDPOLYGONALFACE((15,20,12,11,14,13,19,18,17,16));
#153=IFCINDEXEDPOLYGONALFACE((8,7,14,11));
#154=IFCINDEXEDPOLYGONALFACE((4,3,17,18));
#155=IFCINDEXEDPOLYGONALFACE((1,10,20,15));
#156=IFCINDEXEDPOLYGONALFACE((10,9,12,20));
#157=IFCPOLYGONALFACESET(#144,.F.,(#145,#146,#147,#148,#149,#150,#151,#152,#153,#154,#155,#156),$);
#158=IFCCOLOURRGB($,0.0470588235294118,0.149019607843137,0.349019607843137);
#159=IFCSURFACESTYLERENDERING(#158,0.,$,$,$,$,$,$,.NOTDEFINED.);
#160=IFCSURFACESTYLE($,.BOTH.,(#159));
#161=IFCSTYLEDITEM(#157,(#160),$);
#162=IFCCARTESIANPOINTLIST3D(((-0.839722,-0.090671,0.),(-0.894512,0.110242,0.),(-0.868613,0.110242,0.),(-0.836828,-0.021803,0.),(-0.827018,-0.062564,0.),(-0.816521,-0.026512,0.),(-0.776691,0.110242,0.),(-0.739364,0.110242,0.),(-0.710424,0.01111,0.),(-0.68889,-0.062564,0.),(-0.679374,-0.02298,0.),(-0.647344,0.110242,0.),(-0.621396,0.110242,0.),(-0.676137,-0.090671,0.),(-0.703017,-0.090671,0.),(-0.751234,0.06433,0.),(-0.757954,0.085962,0.),(-0.765508,0.059916,0.),(-0.809408,-0.090671,0.),(-0.839722,-0.090671,0.025),(-0.809408,-0.090671,0.025),(-0.765508,0.059916,0.025),(-0.757954,0.085962,0.025),(-0.751234,0.06433,0.025),(-0.703017,-0.090671,0.025),(-0.676137,-0.090671,0.025),(-0.621396,0.110242,0.025),(-0.647344,0.110242,0.025),(-0.679374,-0.02298,0.025),(-0.68889,-0.062564,0.025),(-0.710424,0.01111,0.025),(-0.739364,0.110242,0.025),(-0.776691,0.110242,0.025),(-0.816521,-0.026512,0.025),(-0.827018,-0.062564,0.025),(-0.836828,-0.021803,0.025),(-0.868613,0.110242,0.025),(-0.894512,0.110242,0.025)));
#163=IFCINDEXEDPOLYGONALFACE((1,2,3,4,5,6,7,8,9,10,11,12,13,14,15,16,17,18,19));
#164=IFCINDEXEDPOLYGONALFACE((20,21,22,23,24,25,26,27,28,29,30,31,32,33,34,35,36,37,38));
#165=IFCINDEXEDPOLYGONALFACE((28,27,13,12));
#166=IFCINDEXEDPOLYGONALFACE((27,26,14,13));
#167=IFCINDEXEDPOLYGONALFACE((26,25,15,14));
#168=IFCINDEXEDPOLYGONALFACE((25,24,16,15));
#169=IFCINDEXEDPOLYGONALFACE((24,23,17,16));
#170=IFCINDEXEDPOLYGONALFACE((23,22,18,17));
#171=IFCINDEXEDPOLYGONALFACE((22,21,19,18));
#172=IFCINDEXEDPOLYGONALFACE((21,20,1,19));
#173=IFCINDEXEDPOLYGONALFACE((36,35,5,4));
#174=IFCINDEXEDPOLYGONALFACE((35,34,6,5));
#175=IFCINDEXEDPOLYGONALFACE((34,33,7,6));
#176=IFCINDEXEDPOLYGONALFACE((33,32,8,7));
#177=IFCINDEXEDPOLYGONALFACE((32,31,9,8));
#178=IFCINDEXEDPOLYGONALFACE((31,30,10,9));
#179=IFCINDEXEDPOLYGONALFACE((30,29,11,10));
#180=IFCINDEXEDPOLYGONALFACE((29,28,12,11));
#181=IFCINDEXEDPOLYGONALFACE((20,38,2,1));
#182=IFCINDEXEDPOLYGONALFACE((38,37,3,2));
#183=IFCINDEXEDPOLYGONALFACE((37,36,4,3));
#184=IFCPOLYGONALFACESET(#162,.F.,(#163,#164,#165,#166,#167,#168,#169,#170,#171,#172,#173,#174,#175,#176,#177,#178,#179,#180,#181,#182,#183),$);
#185=IFCCOLOURRGB($,0.0470588235294118,0.149019607843137,0.349019607843137);
#186=IFCSURFACESTYLERENDERING(#185,0.,$,$,$,$,$,$,.NOTDEFINED.);
#187=IFCSURFACESTYLE($,.BOTH.,(#186));
#188=IFCSTYLEDITEM(#184,(#187),$);
#189=IFCCARTESIANPOINTLIST3D(((0.4994,0.,0.),(0.,0.,0.),(0.,0.2497,0.),(0.078958,0.002,0.172828),(0.078958,0.002,0.126567),(0.105,0.002,0.141603),(0.131042,0.002,0.126567),(0.18,0.002,0.098301),(0.18,0.002,0.138413),(0.179204,0.002,0.145132),(0.17686,0.002,0.151478),(0.173097,0.002,0.157101),(0.168125,0.002,0.16169),(0.105,0.002,0.198135),(0.084688,0.002,0.186407),(0.082257,0.002,0.183514),(0.080449,0.002,0.180197),(0.079335,0.002,0.176587),(0.131042,0.002,0.080307),(0.105,0.002,0.111532),(0.03,0.002,0.154833),(0.03,0.002,0.114722),(0.030796,0.002,0.108003),(0.03314,0.002,0.101656),(0.036903,0.002,0.096033),(0.041875,0.002,0.091445),(0.105,0.002,0.055),(0.125313,0.002,0.066727),(0.127743,0.002,0.06962),(0.129551,0.002,0.072938),(0.130665,0.002,0.076548),(0.105,0.,0.141603),(0.078958,0.,0.126567),(0.105,0.,0.111532),(0.131042,0.,0.126567),(0.,0.,0.3),(0.4994,0.,0.025),(0.082257,0.,0.183514),(0.084688,0.,0.186407),(0.105,0.,0.198135),(0.168125,0.,0.16169),(0.173097,0.,0.157101),(0.17686,0.,0.151478),(0.179204,0.,0.145132),(0.18,0.,0.138413),(0.18,0.,0.098301),(0.131042,0.,0.080307),(0.130665,0.,0.076548),(0.129551,0.,0.072938),(0.127743,0.,0.06962),(0.125313,0.,0.066727),(0.105,0.,0.055),(0.041875,0.,0.091445),(0.036903,0.,0.096033),(0.03314,0.,0.101656),(0.030796,0.,0.108003),(0.03,0.,0.114722),(0.03,0.,0.154833),(0.078958,0.,0.172828),(0.079335,0.,0.176587),(0.080449,0.,0.180197),(0.,0.2497,0.025)));
#190=IFCINDEXEDPOLYGONALFACE((1,2,3));
#191=IFCINDEXEDPOLYGONALFACE((4,5,6,7,8,9,10,11,12,13,14,15,16,17,18));
#192=IFCINDEXEDPOLYGONALFACE((19,7,20,5,21,22,23,24,25,26,27,28,29,30,31));
#193=IFCINDEXEDPOLYGONALFACE((32,33,34,35));
#194=IFCINDEXEDPOLYGONALFACE((36,2,1,37,38,39,40,41,42,43,44,45,46,35,47,48,49,50,51,52,53,54,55,56,57,58,33,59,60,61));
#195=IFCINDEXEDPOLYGONALFACE((56,23,22,57));
#196=IFCINDEXEDPOLYGONALFACE((32,35,7,6));
#197=IFCINDEXEDPOLYGONALFACE((26,53,52,27));
#198=IFCINDEXEDPOLYGONALFACE((36,37,62));
#199=IFCINDEXEDPOLYGONALFACE((62,37,1,3));
#200=IFCINDEXEDPOLYGONALFACE((8,46,45,9));
#201=IFCINDEXEDPOLYGONALFACE((19,47,35,7));
#202=IFCINDEXEDPOLYGONALFACE((36,62,3,2));
#203=IFCINDEXEDPOLYGONALFACE((21,58,57,22));
#204=IFCINDEXEDPOLYGONALFACE((13,41,40,14));
#205=IFCINDEXEDPOLYGONALFACE((34,33,5,20));
#206=IFCINDEXEDPOLYGONALFACE((14,40,39,15));
#207=IFCINDEXEDPOLYGONALFACE((7,35,34,20));
#208=IFCINDEXEDPOLYGONALFACE((54,53,26,25));
#209=IFCINDEXEDPOLYGONALFACE((54,25,24,55));
#210=IFCINDEXEDPOLYGONALFACE((55,24,23,56));
#211=IFCINDEXEDPOLYGONALFACE((38,16,15,39));
#212=IFCINDEXEDPOLYGONALFACE((48,47,19,31));
#213=IFCINDEXEDPOLYGONALFACE((48,31,30,49));
#214=IFCINDEXEDPOLYGONALFACE((49,30,29,50));
#215=IFCINDEXEDPOLYGONALFACE((50,29,28,51));
#216=IFCINDEXEDPOLYGONALFACE((5,33,32,6));
#217=IFCINDEXEDPOLYGONALFACE((27,52,51,28));
#218=IFCINDEXEDPOLYGONALFACE((4,59,33,5));
#219=IFCINDEXEDPOLYGONALFACE((42,41,13,12));
#220=IFCINDEXEDPOLYGONALFACE((42,12,11,43));
#221=IFCINDEXEDPOLYGONALFACE((43,11,10,44));
#222=IFCINDEXEDPOLYGONALFACE((44,10,9,45));
#223=IFCINDEXEDPOLYGONALFACE((60,59,4,18));
#224=IFCINDEXEDPOLYGONALFACE((60,18,17,61));
#225=IFCINDEXEDPOLYGONALFACE((61,17,16,38));
#226=IFCINDEXEDPOLYGONALFACE((8,7,35,46));
#227=IFCINDEXEDPOLYGONALFACE((21,5,33,58));
#228=IFCPOLYGONALFACESET(#189,.F.,(#190,#191,#192,#193,#194,#195,#196,#197,#198,#199,#200,#201,#202,#203,#204,#205,#206,#207,#208,#209,#210,#211,#212,#213,#214,#215,#216,#217,#218,#219,#220,#221,#222,#223,#224,#225,#226,#227),$);
#229=IFCCOLOURRGB($,0.0470588235294118,0.149019607843137,0.349019607843137);
#230=IFCSURFACESTYLERENDERING(#229,0.,$,$,$,$,$,$,.NOTDEFINED.);
#231=IFCSURFACESTYLE($,.BOTH.,(#230));
#232=IFCSTYLEDITEM(#228,(#231),$);
#233=IFCCARTESIANPOINTLIST3D(((0.03,0.001,0.154833),(0.105,0.001,0.198135),(0.105,0.002,0.198135),(0.03,0.002,0.154833),(0.18,0.001,0.098301),(0.105,0.001,0.055),(0.105,0.002,0.055),(0.18,0.002,0.098301),(0.18,0.001,0.154833),(0.18,0.002,0.154833),(0.03,0.001,0.098301),(0.03,0.002,0.098301)));
#234=IFCINDEXEDPOLYGONALFACE((1,2,3,4));
#235=IFCINDEXEDPOLYGONALFACE((5,6,7,8));
#236=IFCINDEXEDPOLYGONALFACE((2,9,10,3));
#237=IFCINDEXEDPOLYGONALFACE((11,1,4,12));
#238=IFCINDEXEDPOLYGONALFACE((4,3,10,8,7,12));
#239=IFCINDEXEDPOLYGONALFACE((9,5,8,10));
#240=IFCINDEXEDPOLYGONALFACE((1,11,6,5,9,2));
#241=IFCINDEXEDPOLYGONALFACE((6,11,12,7));
#242=IFCPOLYGONALFACESET(#233,.F.,(#234,#235,#236,#237,#238,#239,#240,#241),$);
#243=IFCCOLOURRGB($,1.,1.,1.);
#244=IFCSURFACESTYLERENDERING(#243,0.,$,$,$,$,$,$,.NOTDEFINED.);
#245=IFCSURFACESTYLE($,.BOTH.,(#244));
#246=IFCSTYLEDITEM(#242,(#245),$);
#247=IFCSHAPEREPRESENTATION(#10,'Body','Tessellation',(#41,#53,#65,#85,#139,#157,#184,#228,#242));
#248=IFCPRODUCTDEFINITIONSHAPE($,$,(#247));
#249=IFCCARTESIANPOINT((-0.,-0.,0.));
#250=IFCDIRECTION((0.,0.,1.));
#251=IFCDIRECTION((0.637921483011472,0.770101409888622,0.));
#252=IFCAXIS2PLACEMENT3D(#249,#250,#251);
#253=IFCLOCALPLACEMENT(#27,#252);
#254=IFCGEOGRAPHICELEMENT('1eIt5gGlrANuJsfHRlRRlk',#5,'GEO-Nulpunt',$,$,#253,#248,$,.NOTDEFINED.);
#255=IFCRELCONTAINEDINSPATIALSTRUCTURE('2Yd5XVdZ96mRNatDk79j4p',#5,'GEO-Nulpunt-Relation',$,(#254),#28);
#256=IFCPROPERTYSINGLEVALUE('RD-X',$,IFCTEXT('160071.588'),$);
#257=IFCPROPERTYSINGLEVALUE('RD-Y',$,IFCTEXT('384156.389'),$);
#258=IFCPROPERTYSINGLEVALUE('Latitude',$,IFCTEXT('51.44647491'),$);
#259=IFCPROPERTYSINGLEVALUE('Longitude',$,IFCTEXT('5.46015425'),$);
#260=IFCPROPERTYSINGLEVALUE('NAP',$,IFCREAL(18.753),$);
#261=IFCPROPERTYSET('3B38yVt7fArButsQPtmkg3',#5,'CPset_GEO-Nulpunt',$,(#256,#257,#258,#259,#260));
#262=IFCRELDEFINESBYPROPERTIES('0u5MQYVGPB6PFCY_bNeUll',#5,$,$,(#254),#261);
ENDSEC;
END-ISO-10303-21;
