ISO-10303-21;
HEADER;
FILE_DESCRIPTION(('ViewDefinition [CoordinationView_V2.0]'),'2;1');
FILE_NAME('3D-omgeving.nl-GEO-Nulpunt.ifc','2025-12-18T11:11:09',('3D-omgeving.nl'),('On-Track B.V.'),'3D-omgeving.nl','OnTrack - 3Domgeving - 1.1.0','none');
FILE_SCHEMA(('IFC2X3'));
ENDSEC;
DATA;
#1=IFCPERSON($,$,'3D-omgeving.nl',$,$,$,$,$);
#2=IFCORGANIZATION($,'On-Track B.V.',$,$,$);
#3=IFCPERSONANDORGANIZATION(#1,#2,$);
#4=IFCAPPLICATION(#2,'OnTrack - 3Domgeving - 1.1.0','3D-omgeving.nl','');
#5=IFCOWNERHISTORY(#3,#4,$,.ADDED.,$,#3,#4,1766056269);
#6=IFCDIRECTION((1.,0.,0.));
#7=IFCDIRECTION((0.,0.,1.));
#8=IFCCARTESIANPOINT((0.,0.,0.));
#9=IFCAXIS2PLACEMENT3D(#8,#7,#6);
#10=IFCDIRECTION((0.,1.,0.));
#11=IFCGEOMETRICREPRESENTATIONCONTEXT($,'Model',3,1.E-05,#9,#10);
#12=IFCDIMENSIONALEXPONENTS(0,0,0,0,0,0,0);
#13=IFCSIUNIT(*,.LENGTHUNIT.,$,.METRE.);
#14=IFCSIUNIT(*,.AREAUNIT.,$,.SQUARE_METRE.);
#15=IFCSIUNIT(*,.VOLUMEUNIT.,$,.CUBIC_METRE.);
#16=IFCSIUNIT(*,.PLANEANGLEUNIT.,$,.RADIAN.);
#17=IFCMEASUREWITHUNIT(IFCPLANEANGLEMEASURE(0.0174532925199433),#16);
#18=IFCCONVERSIONBASEDUNIT(#12,.PLANEANGLEUNIT.,'DEGREE',#17);
#19=IFCUNITASSIGNMENT((#13,#14,#15,#18));
#20=IFCPROJECT('3yuVs9sXf8MefFa_1kdFeH',#5,'3D-omgeving.nl-GEO-Nulpunt.ifc',$,$,$,$,(#11),#19);
#21=IFCCARTESIANPOINT((0.,0.,0.));
#22=IFCDIRECTION((0.,0.,1.));
#23=IFCDIRECTION((1.,0.,0.));
#24=IFCAXIS2PLACEMENT3D(#21,#22,#23);
#25=IFCLOCALPLACEMENT($,#24);
#26=IFCSITE('2WbIXemsX20Pkt2_4nErz8',#5,'Site',$,$,#25,$,$,.ELEMENT.,$,$,$,$,$);
#27=IFCCARTESIANPOINT((0.,0.,0.));
#28=IFCDIRECTION((0.,0.,1.));
#29=IFCDIRECTION((1.,0.,0.));
#30=IFCAXIS2PLACEMENT3D(#27,#28,#29);
#31=IFCLOCALPLACEMENT(#25,#30);
#32=IFCBUILDING('3ZUfTmVVrDZezfUtbzQOvQ',#5,'Building',$,$,#31,$,$,.ELEMENT.,$,$,$);
#33=IFCCARTESIANPOINT((0.,0.,0.));
#34=IFCDIRECTION((0.,0.,1.));
#35=IFCDIRECTION((1.,0.,0.));
#36=IFCAXIS2PLACEMENT3D(#33,#34,#35);
#37=IFCLOCALPLACEMENT(#31,#36);
#38=IFCBUILDINGSTOREY('2wx7GLoQP2JwIQlwTyNjJ3',#5,'Storey',$,$,#37,$,$,.ELEMENT.,0.);
#39=IFCRELAGGREGATES('0jm8eFsrT9FevZRlHm1vlZ',#5,'Building Container',$,#32,(#38));
#40=IFCRELAGGREGATES('1WQTMuhlv0rRYraRXnbxg6',#5,'Site Container',$,#26,(#32));
#41=IFCRELAGGREGATES('1YxeWvzLH2G9XrC8D_09ol',#5,'Project Container',$,#20,(#26));
#42=IFCCARTESIANPOINT((-0.163989797234535,3.60955709766131E-15,0.025000000372529));
#43=IFCCARTESIANPOINT((-3.49224636838827E-14,0.0819948986172674,0.025000000372529));
#44=IFCCARTESIANPOINT((-3.07940352633606E-14,0.249699994921684,0.025000000372529));
#45=IFCCARTESIANPOINT((-0.499399989843369,1.08286712929839E-14,0.025000000372529));
#46=IFCPOLYLOOP((#42,#43,#44,#45));
#47=IFCFACEBOUND(#46,.T.);
#48=IFCFACE((#47));
#49=IFCCARTESIANPOINT((-0.163989797234535,3.60955709766131E-15,-4.00741339852274E-32));
#50=IFCCARTESIANPOINT((-0.499399989843369,1.08286712929839E-14,-1.6029653594091E-31));
#51=IFCCARTESIANPOINT((-3.07940352633606E-14,0.249699994921684,-8.01482679704548E-32));
#52=IFCCARTESIANPOINT((-3.49224636838827E-14,0.0819948986172674,-1.20222401955682E-31));
#53=IFCPOLYLOOP((#49,#50,#51,#52));
#54=IFCFACEBOUND(#53,.T.);
#55=IFCFACE((#54));
#56=IFCCARTESIANPOINT((-0.163989797234535,3.60955709766131E-15,0.025000000372529));
#57=IFCCARTESIANPOINT((-0.499399989843369,1.08286712929839E-14,0.025000000372529));
#58=IFCCARTESIANPOINT((-0.499399989843369,1.08286712929839E-14,-1.6029653594091E-31));
#59=IFCCARTESIANPOINT((-0.163989797234535,3.60955709766131E-15,-4.00741339852274E-32));
#60=IFCPOLYLOOP((#56,#57,#58,#59));
#61=IFCFACEBOUND(#60,.T.);
#62=IFCFACE((#61));
#63=IFCCARTESIANPOINT((-0.499399989843369,1.08286712929839E-14,0.025000000372529));
#64=IFCCARTESIANPOINT((-3.07940352633606E-14,0.249699994921684,0.025000000372529));
#65=IFCCARTESIANPOINT((-3.07940352633606E-14,0.249699994921684,-8.01482679704548E-32));
#66=IFCCARTESIANPOINT((-0.499399989843369,1.08286712929839E-14,-1.6029653594091E-31));
#67=IFCPOLYLOOP((#63,#64,#65,#66));
#68=IFCFACEBOUND(#67,.T.);
#69=IFCFACE((#68));
#70=IFCCARTESIANPOINT((-3.07940352633606E-14,0.249699994921684,0.025000000372529));
#71=IFCCARTESIANPOINT((-3.49224636838827E-14,0.0819948986172674,0.025000000372529));
#72=IFCCARTESIANPOINT((-3.49224636838827E-14,0.0819948986172674,-1.20222401955682E-31));
#73=IFCCARTESIANPOINT((-3.07940352633606E-14,0.249699994921684,-8.01482679704548E-32));
#74=IFCPOLYLOOP((#70,#71,#72,#73));
#75=IFCFACEBOUND(#74,.T.);
#76=IFCFACE((#75));
#77=IFCCARTESIANPOINT((-3.49224636838827E-14,0.0819948986172674,0.025000000372529));
#78=IFCCARTESIANPOINT((-0.163989797234535,3.60955709766131E-15,0.025000000372529));
#79=IFCCARTESIANPOINT((-0.163989797234535,3.60955709766131E-15,-4.00741339852274E-32));
#80=IFCCARTESIANPOINT((-3.49224636838827E-14,0.0819948986172674,-1.20222401955682E-31));
#81=IFCPOLYLOOP((#77,#78,#79,#80));
#82=IFCFACEBOUND(#81,.T.);
#83=IFCFACE((#82));
#84=IFCCLOSEDSHELL((#48,#55,#62,#69,#76,#83));
#85=IFCFACETEDBREP(#84);
#86=IFCCARTESIANPOINT((0.163989797234464,-7.14860482562451E-16,0.025000000372529));
#87=IFCCARTESIANPOINT((-3.36583769022504E-14,-0.0819948986172689,0.025000000372529));
#88=IFCCARTESIANPOINT((-3.3351143936189E-14,-0.249699994921685,0.025000000372529));
#89=IFCCARTESIANPOINT((0.499399989843298,9.37348095282042E-16,0.025000000372529));
#90=IFCPOLYLOOP((#86,#87,#88,#89));
#91=IFCFACEBOUND(#90,.T.);
#92=IFCFACE((#91));
#93=IFCCARTESIANPOINT((0.163989797234464,-7.15985144223407E-16,-1.35706275413179E-17));
#94=IFCCARTESIANPOINT((0.499399989843298,9.36223433621086E-16,-5.8462899550157E-18));
#95=IFCCARTESIANPOINT((-3.33505681980427E-14,-0.249699994921685,-6.11411448598479E-18));
#96=IFCCARTESIANPOINT((-3.36578011641042E-14,-0.0819948986172689,-1.36585740599824E-17));
#97=IFCPOLYLOOP((#93,#94,#95,#96));
#98=IFCFACEBOUND(#97,.T.);
#99=IFCFACE((#98));
#100=IFCCARTESIANPOINT((0.163989797234464,-7.14860482562451E-16,0.025000000372529));
#101=IFCCARTESIANPOINT((0.499399989843298,9.37348095282042E-16,0.025000000372529));
#102=IFCCARTESIANPOINT((0.499399989843298,9.36223433621086E-16,-5.8462899550157E-18));
#103=IFCCARTESIANPOINT((0.163989797234464,-7.15985144223407E-16,-1.35706275413179E-17));
#104=IFCPOLYLOOP((#100,#101,#102,#103));
#105=IFCFACEBOUND(#104,.T.);
#106=IFCFACE((#105));
#107=IFCCARTESIANPOINT((0.499399989843298,9.37348095282042E-16,0.025000000372529));
#108=IFCCARTESIANPOINT((-3.3351143936189E-14,-0.249699994921685,0.025000000372529));
#109=IFCCARTESIANPOINT((-3.33505681980427E-14,-0.249699994921685,-6.11411448598479E-18));
#110=IFCCARTESIANPOINT((0.499399989843298,9.36223433621086E-16,-5.8462899550157E-18));
#111=IFCPOLYLOOP((#107,#108,#109,#110));
#112=IFCFACEBOUND(#111,.T.);
#113=IFCFACE((#112));
#114=IFCCARTESIANPOINT((-3.3351143936189E-14,-0.249699994921685,0.025000000372529));
#115=IFCCARTESIANPOINT((-3.36583769022504E-14,-0.0819948986172689,0.025000000372529));
#116=IFCCARTESIANPOINT((-3.36578011641042E-14,-0.0819948986172689,-1.36585740599824E-17));
#117=IFCCARTESIANPOINT((-3.33505681980427E-14,-0.249699994921685,-6.11411448598479E-18));
#118=IFCPOLYLOOP((#114,#115,#116,#117));
#119=IFCFACEBOUND(#118,.T.);
#120=IFCFACE((#119));
#121=IFCCARTESIANPOINT((-3.36583769022504E-14,-0.0819948986172689,0.025000000372529));
#122=IFCCARTESIANPOINT((0.163989797234464,-7.14860482562451E-16,0.025000000372529));
#123=IFCCARTESIANPOINT((0.163989797234464,-7.15985144223407E-16,-1.35706275413179E-17));
#124=IFCCARTESIANPOINT((-3.36578011641042E-14,-0.0819948986172689,-1.36585740599824E-17));
#125=IFCPOLYLOOP((#121,#122,#123,#124));
#126=IFCFACEBOUND(#125,.T.);
#127=IFCFACE((#126));
#128=IFCCLOSEDSHELL((#92,#99,#106,#113,#120,#127));
#129=IFCFACETEDBREP(#128);
#130=IFCCARTESIANPOINT((-3.34786420808086E-14,-0.0819948986172674,0.025000000372529));
#131=IFCCARTESIANPOINT((-3.3207925298484E-14,-0.249699994921684,0.025000000372529));
#132=IFCCARTESIANPOINT((-3.3207925298484E-14,-0.249699994921684,0.));
#133=IFCCARTESIANPOINT((-3.34786420808086E-14,-0.0819948986172674,0.));
#134=IFCPOLYLOOP((#130,#131,#132,#133));
#135=IFCFACEBOUND(#134,.T.);
#136=IFCFACE((#135));
#137=IFCCARTESIANPOINT((-0.499399989843369,-2.16573425859679E-15,0.025000000372529));
#138=IFCCARTESIANPOINT((-0.163989797234535,-1.44382283906452E-15,0.025000000372529));
#139=IFCCARTESIANPOINT((-0.163989797234535,-1.44382283906452E-15,0.));
#140=IFCCARTESIANPOINT((-0.499399989843369,-2.16573425859679E-15,0.));
#141=IFCPOLYLOOP((#137,#138,#139,#140));
#142=IFCFACEBOUND(#141,.T.);
#143=IFCFACE((#142));
#144=IFCCARTESIANPOINT((-0.163989797234535,-1.44382283906452E-15,0.025000000372529));
#145=IFCCARTESIANPOINT((-3.34786420808086E-14,-0.0819948986172674,0.025000000372529));
#146=IFCCARTESIANPOINT((-3.34786420808086E-14,-0.0819948986172674,0.));
#147=IFCCARTESIANPOINT((-0.163989797234535,-1.44382283906452E-15,0.));
#148=IFCPOLYLOOP((#144,#145,#146,#147));
#149=IFCFACEBOUND(#148,.T.);
#150=IFCFACE((#149));
#151=IFCCARTESIANPOINT((-3.3207925298484E-14,-0.249699994921684,0.));
#152=IFCCARTESIANPOINT((-0.499399989843369,-2.16573425859679E-15,0.));
#153=IFCCARTESIANPOINT((-0.163989797234535,-1.44382283906452E-15,0.));
#154=IFCCARTESIANPOINT((-3.34786420808086E-14,-0.0819948986172674,0.));
#155=IFCPOLYLOOP((#151,#152,#153,#154));
#156=IFCFACEBOUND(#155,.T.);
#157=IFCFACE((#156));
#158=IFCCARTESIANPOINT((-3.3207925298484E-14,-0.249699994921684,0.025000000372529));
#159=IFCCARTESIANPOINT((-0.499399989843369,-2.16573425859679E-15,0.025000000372529));
#160=IFCCARTESIANPOINT((-0.499399989843369,-2.16573425859679E-15,0.));
#161=IFCCARTESIANPOINT((-3.3207925298484E-14,-0.249699994921684,0.));
#162=IFCPOLYLOOP((#158,#159,#160,#161));
#163=IFCFACEBOUND(#162,.T.);
#164=IFCFACE((#163));
#165=IFCCARTESIANPOINT((-3.3207925298484E-14,-0.249699994921684,0.025000000372529));
#166=IFCCARTESIANPOINT((-3.34786420808086E-14,-0.0819948986172674,0.025000000372529));
#167=IFCCARTESIANPOINT((-0.163989797234535,-1.44382283906452E-15,0.025000000372529));
#168=IFCCARTESIANPOINT((-0.499399989843369,-2.16573425859679E-15,0.025000000372529));
#169=IFCPOLYLOOP((#165,#166,#167,#168));
#170=IFCFACEBOUND(#169,.T.);
#171=IFCFACE((#170));
#172=IFCCLOSEDSHELL((#136,#143,#150,#157,#164,#171));
#173=IFCFACETEDBREP(#172);
#174=IFCCARTESIANPOINT((-0.083979956805706,-0.572234034538269,0.025000000372529));
#175=IFCCARTESIANPOINT((-0.083979956805706,-0.546187996864319,0.025000000372529));
#176=IFCCARTESIANPOINT((-0.083979956805706,-0.546187996864319,0.));
#177=IFCCARTESIANPOINT((-0.083979956805706,-0.572234034538269,0.));
#178=IFCPOLYLOOP((#174,#175,#176,#177));
#179=IFCFACEBOUND(#178,.T.);
#180=IFCFACE((#179));
#181=IFCCARTESIANPOINT((0.0382549688220024,-0.396435499191284,0.025000000372529));
#182=IFCCARTESIANPOINT((-0.0714229121804237,-0.396435499191284,0.025000000372529));
#183=IFCCARTESIANPOINT((-0.0714229121804237,-0.396435499191284,0.));
#184=IFCCARTESIANPOINT((0.0382549688220024,-0.396435499191284,0.));
#185=IFCPOLYLOOP((#181,#182,#183,#184));
#186=IFCFACEBOUND(#185,.T.);
#187=IFCFACE((#186));
#188=IFCCARTESIANPOINT((-0.083979956805706,-0.546187996864319,0.025000000372529));
#189=IFCCARTESIANPOINT((0.0187326986342669,-0.420323312282563,0.025000000372529));
#190=IFCCARTESIANPOINT((0.0187326986342669,-0.420323312282563,0.));
#191=IFCCARTESIANPOINT((-0.083979956805706,-0.546187996864319,0.));
#192=IFCPOLYLOOP((#188,#189,#190,#191));
#193=IFCFACEBOUND(#192,.T.);
#194=IFCFACE((#193));
#195=IFCCARTESIANPOINT((-0.0714229121804237,-0.396435499191284,0.025000000372529));
#196=IFCCARTESIANPOINT((-0.0714229121804237,-0.371321439743042,0.025000000372529));
#197=IFCCARTESIANPOINT((-0.0714229121804237,-0.371321439743042,0.));
#198=IFCCARTESIANPOINT((-0.0714229121804237,-0.396435499191284,0.));
#199=IFCPOLYLOOP((#195,#196,#197,#198));
#200=IFCFACEBOUND(#199,.T.);
#201=IFCFACE((#200));
#202=IFCCARTESIANPOINT((-0.0531759671866894,-0.547119975090027,0.025000000372529));
#203=IFCCARTESIANPOINT((0.0729830339550972,-0.547119975090027,0.025000000372529));
#204=IFCCARTESIANPOINT((0.0729830339550972,-0.547119975090027,0.));
#205=IFCCARTESIANPOINT((-0.0531759671866894,-0.547119975090027,0.));
#206=IFCPOLYLOOP((#202,#203,#204,#205));
#207=IFCFACEBOUND(#206,.T.);
#208=IFCFACE((#207));
#209=IFCCARTESIANPOINT((-0.083979956805706,-0.572234034538269,0.));
#210=IFCCARTESIANPOINT((-0.083979956805706,-0.546187996864319,0.));
#211=IFCCARTESIANPOINT((0.0187326986342669,-0.420323312282563,0.));
#212=IFCCARTESIANPOINT((0.0382549688220024,-0.396435499191284,0.));
#213=IFCCARTESIANPOINT((-0.0714229121804237,-0.396435499191284,0.));
#214=IFCCARTESIANPOINT((-0.0714229121804237,-0.371321439743042,0.));
#215=IFCCARTESIANPOINT((0.0698437690734863,-0.371321439743042,0.));
#216=IFCCARTESIANPOINT((0.0698437690734863,-0.396435499191284,0.));
#217=IFCCARTESIANPOINT((-0.0425809659063816,-0.534170508384705,0.));
#218=IFCCARTESIANPOINT((-0.0531759671866894,-0.547119975090027,0.));
#219=IFCCARTESIANPOINT((0.0729830339550972,-0.547119975090027,0.));
#220=IFCCARTESIANPOINT((0.0729830339550972,-0.572234034538269,0.));
#221=IFCPOLYLOOP((#209,#210,#211,#212,#213,#214,#215,#216,#217,#218,#219,#220));
#222=IFCFACEBOUND(#221,.T.);
#223=IFCFACE((#222));
#224=IFCCARTESIANPOINT((0.0729830339550972,-0.547119975090027,0.025000000372529));
#225=IFCCARTESIANPOINT((0.0729830339550972,-0.572234034538269,0.025000000372529));
#226=IFCCARTESIANPOINT((0.0729830339550972,-0.572234034538269,0.));
#227=IFCCARTESIANPOINT((0.0729830339550972,-0.547119975090027,0.));
#228=IFCPOLYLOOP((#224,#225,#226,#227));
#229=IFCFACEBOUND(#228,.T.);
#230=IFCFACE((#229));
#231=IFCCARTESIANPOINT((-0.0425809659063816,-0.534170508384705,0.025000000372529));
#232=IFCCARTESIANPOINT((-0.0531759671866894,-0.547119975090027,0.025000000372529));
#233=IFCCARTESIANPOINT((-0.0531759671866894,-0.547119975090027,0.));
#234=IFCCARTESIANPOINT((-0.0425809659063816,-0.534170508384705,0.));
#235=IFCPOLYLOOP((#231,#232,#233,#234));
#236=IFCFACEBOUND(#235,.T.);
#237=IFCFACE((#236));
#238=IFCCARTESIANPOINT((-0.083979956805706,-0.572234034538269,0.025000000372529));
#239=IFCCARTESIANPOINT((0.0729830339550972,-0.572234034538269,0.025000000372529));
#240=IFCCARTESIANPOINT((0.0729830339550972,-0.547119975090027,0.025000000372529));
#241=IFCCARTESIANPOINT((-0.0531759671866894,-0.547119975090027,0.025000000372529));
#242=IFCCARTESIANPOINT((-0.0425809659063816,-0.534170508384705,0.025000000372529));
#243=IFCCARTESIANPOINT((0.0698437690734863,-0.396435499191284,0.025000000372529));
#244=IFCCARTESIANPOINT((0.0698437690734863,-0.371321439743042,0.025000000372529));
#245=IFCCARTESIANPOINT((-0.0714229121804237,-0.371321439743042,0.025000000372529));
#246=IFCCARTESIANPOINT((-0.0714229121804237,-0.396435499191284,0.025000000372529));
#247=IFCCARTESIANPOINT((0.0382549688220024,-0.396435499191284,0.025000000372529));
#248=IFCCARTESIANPOINT((0.0187326986342669,-0.420323312282563,0.025000000372529));
#249=IFCCARTESIANPOINT((-0.083979956805706,-0.546187996864319,0.025000000372529));
#250=IFCPOLYLOOP((#238,#239,#240,#241,#242,#243,#244,#245,#246,#247,#248,#249));
#251=IFCFACEBOUND(#250,.T.);
#252=IFCFACE((#251));
#253=IFCCARTESIANPOINT((0.0187326986342669,-0.420323312282563,0.025000000372529));
#254=IFCCARTESIANPOINT((0.0382549688220024,-0.396435499191284,0.025000000372529));
#255=IFCCARTESIANPOINT((0.0382549688220024,-0.396435499191284,0.));
#256=IFCCARTESIANPOINT((0.0187326986342669,-0.420323312282563,0.));
#257=IFCPOLYLOOP((#253,#254,#255,#256));
#258=IFCFACEBOUND(#257,.T.);
#259=IFCFACE((#258));
#260=IFCCARTESIANPOINT((0.0698437690734863,-0.396435499191284,0.025000000372529));
#261=IFCCARTESIANPOINT((-0.0425809659063816,-0.534170508384705,0.025000000372529));
#262=IFCCARTESIANPOINT((-0.0425809659063816,-0.534170508384705,0.));
#263=IFCCARTESIANPOINT((0.0698437690734863,-0.396435499191284,0.));
#264=IFCPOLYLOOP((#260,#261,#262,#263));
#265=IFCFACEBOUND(#264,.T.);
#266=IFCFACE((#265));
#267=IFCCARTESIANPOINT((0.0698437690734863,-0.371321439743042,0.025000000372529));
#268=IFCCARTESIANPOINT((0.0698437690734863,-0.396435499191284,0.025000000372529));
#269=IFCCARTESIANPOINT((0.0698437690734863,-0.396435499191284,0.));
#270=IFCCARTESIANPOINT((0.0698437690734863,-0.371321439743042,0.));
#271=IFCPOLYLOOP((#267,#268,#269,#270));
#272=IFCFACEBOUND(#271,.T.);
#273=IFCFACE((#272));
#274=IFCCARTESIANPOINT((0.0729830339550972,-0.572234034538269,0.025000000372529));
#275=IFCCARTESIANPOINT((-0.083979956805706,-0.572234034538269,0.025000000372529));
#276=IFCCARTESIANPOINT((-0.083979956805706,-0.572234034538269,0.));
#277=IFCCARTESIANPOINT((0.0729830339550972,-0.572234034538269,0.));
#278=IFCPOLYLOOP((#274,#275,#276,#277));
#279=IFCFACEBOUND(#278,.T.);
#280=IFCFACE((#279));
#281=IFCCARTESIANPOINT((-0.0714229121804237,-0.371321439743042,0.025000000372529));
#282=IFCCARTESIANPOINT((0.0698437690734863,-0.371321439743042,0.025000000372529));
#283=IFCCARTESIANPOINT((0.0698437690734863,-0.371321439743042,0.));
#284=IFCCARTESIANPOINT((-0.0714229121804237,-0.371321439743042,0.));
#285=IFCPOLYLOOP((#281,#282,#283,#284));
#286=IFCFACEBOUND(#285,.T.);
#287=IFCFACE((#286));
#288=IFCCLOSEDSHELL((#180,#187,#194,#201,#208,#223,#230,#237,#252,#259,#266,#273,#280,#287));
#289=IFCFACETEDBREP(#288);
#290=IFCCARTESIANPOINT((0.745889663696289,-0.104676522314549,0.025000000372529));
#291=IFCCARTESIANPOINT((0.719132363796234,-0.101261354982853,0.025000000372529));
#292=IFCCARTESIANPOINT((0.719132363796234,-0.101261354982853,0.));
#293=IFCCARTESIANPOINT((0.745889663696289,-0.104676522314549,0.));
#294=IFCPOLYLOOP((#290,#291,#292,#293));
#295=IFCFACEBOUND(#294,.T.);
#296=IFCFACE((#295));
#297=IFCCARTESIANPOINT((0.77109569311142,-0.101586312055588,0.025000000372529));
#298=IFCCARTESIANPOINT((0.745889663696289,-0.104676522314549,0.025000000372529));
#299=IFCCARTESIANPOINT((0.745889663696289,-0.104676522314549,0.));
#300=IFCCARTESIANPOINT((0.77109569311142,-0.101586312055588,0.));
#301=IFCPOLYLOOP((#297,#298,#299,#300));
#302=IFCFACEBOUND(#301,.T.);
#303=IFCFACE((#302));
#304=IFCCARTESIANPOINT((0.794523656368256,-0.0923156887292863,0.025000000372529));
#305=IFCCARTESIANPOINT((0.77109569311142,-0.101586312055588,0.025000000372529));
#306=IFCCARTESIANPOINT((0.77109569311142,-0.101586312055588,0.));
#307=IFCCARTESIANPOINT((0.794523656368256,-0.0923156887292863,0.));
#308=IFCPOLYLOOP((#304,#305,#306,#307));
#309=IFCFACEBOUND(#308,.T.);
#310=IFCFACE((#309));
#311=IFCCARTESIANPOINT((0.838565230369568,-0.0302785206586121,0.025000000372529));
#312=IFCCARTESIANPOINT((0.829349815845489,-0.0559198968112466,0.025000000372529));
#313=IFCCARTESIANPOINT((0.829349815845489,-0.0559198968112466,0.));
#314=IFCCARTESIANPOINT((0.838565230369568,-0.0302785206586121,0.));
#315=IFCPOLYLOOP((#311,#312,#313,#314));
#316=IFCFACEBOUND(#315,.T.);
#317=IFCFACE((#316));
#318=IFCCARTESIANPOINT((0.829349815845489,-0.0559198968112466,0.025000000372529));
#319=IFCCARTESIANPOINT((0.814499616622925,-0.0770363211631774,0.025000000372529));
#320=IFCCARTESIANPOINT((0.814499616622925,-0.0770363211631774,0.));
#321=IFCCARTESIANPOINT((0.829349815845489,-0.0559198968112466,0.));
#322=IFCPOLYLOOP((#318,#319,#320,#321));
#323=IFCFACEBOUND(#322,.T.);
#324=IFCFACE((#323));
#325=IFCCARTESIANPOINT((0.650142252445221,-0.00372970383614336,0.025000000372529));
#326=IFCCARTESIANPOINT((0.653011679649353,-0.0294262617826464,0.025000000372529));
#327=IFCCARTESIANPOINT((0.661620140075684,-0.0537371300160888,0.025000000372529));
#328=IFCCARTESIANPOINT((0.67579585313797,-0.0748658180236818,0.025000000372529));
#329=IFCCARTESIANPOINT((0.695367157459259,-0.091015838086605,0.025000000372529));
#330=IFCCARTESIANPOINT((0.719132363796234,-0.101261354982853,0.025000000372529));
#331=IFCCARTESIANPOINT((0.745889663696289,-0.104676522314549,0.025000000372529));
#332=IFCCARTESIANPOINT((0.77109569311142,-0.101586312055588,0.025000000372529));
#333=IFCCARTESIANPOINT((0.794523656368256,-0.0923156887292863,0.025000000372529));
#334=IFCCARTESIANPOINT((0.814499616622925,-0.0770363211631774,0.025000000372529));
#335=IFCCARTESIANPOINT((0.829349815845489,-0.0559198968112466,0.025000000372529));
#336=IFCCARTESIANPOINT((0.838565230369568,-0.0302785206586121,0.025000000372529));
#337=IFCCARTESIANPOINT((0.841637074947357,-0.00142431003041575,0.025000000372529));
#338=IFCCARTESIANPOINT((0.83871853351593,0.0270497556775809,0.025000000372529));
#339=IFCCARTESIANPOINT((0.829962968826294,0.0523355118930338,0.025000000372529));
#340=IFCCARTESIANPOINT((0.815640091896057,0.0734151527285577,0.025000000372529));
#341=IFCCARTESIANPOINT((0.796019673347473,0.0892708674073216,0.025000000372529));
#342=IFCCARTESIANPOINT((0.77238941192627,0.0992036759853361,0.025000000372529));
#343=IFCCARTESIANPOINT((0.74603682756424,0.102514617145061,0.025000000372529));
#344=IFCCARTESIANPOINT((0.725843131542206,0.100751847028732,0.025000000372529));
#345=IFCCARTESIANPOINT((0.707593142986298,0.0954635441303251,0.025000000372529));
#346=IFCCARTESIANPOINT((0.691286742687225,0.0866497084498407,0.025000000372529));
#347=IFCCARTESIANPOINT((0.676924049854279,0.0743103325366972,0.025000000372529));
#348=IFCCARTESIANPOINT((0.665206968784332,0.0588562190532682,0.025000000372529));
#349=IFCCARTESIANPOINT((0.656837701797485,0.0406981781125066,0.025000000372529));
#350=IFCCARTESIANPOINT((0.651816070079803,0.0198362041264772,0.025000000372529));
#351=IFCCARTESIANPOINT((0.675256311893463,-0.00397495832294255,0.025000000372529));
#352=IFCCARTESIANPOINT((0.680492460727692,0.0336041860282421,0.025000000372529));
#353=IFCCARTESIANPOINT((0.687037706375122,0.0476894676685332,0.025000000372529));
#354=IFCCARTESIANPOINT((0.696201026439667,0.0586385577917101,0.025000000372529));
#355=IFCCARTESIANPOINT((0.719169139862061,0.0727100446820262,0.025000000372529));
#356=IFCCARTESIANPOINT((0.746183931827545,0.0774005353450775,0.025000000372529));
#357=IFCCARTESIANPOINT((0.765626490116119,0.074966385960579,0.025000000372529));
#358=IFCCARTESIANPOINT((0.783045709133148,0.0676639303565028,0.025000000372529));
#359=IFCCARTESIANPOINT((0.797485113143921,0.0559346228837969,0.025000000372529));
#360=IFCCARTESIANPOINT((0.807988107204437,0.0402199327945712,0.025000000372529));
#361=IFCCARTESIANPOINT((0.814389288425445,0.0210042297840115,0.025000000372529));
#362=IFCCARTESIANPOINT((0.816523015499115,-0.00122810632456125,0.025000000372529));
#363=IFCCARTESIANPOINT((0.81153815984726,-0.0344723761081697,0.025000000372529));
#364=IFCCARTESIANPOINT((0.80530720949173,-0.0478847399353985,0.025000000372529));
#365=IFCCARTESIANPOINT((0.796583771705627,-0.0591572560369969,0.025000000372529));
#366=IFCCARTESIANPOINT((0.773903846740723,-0.07446114718914,0.025000000372529));
#367=IFCCARTESIANPOINT((0.745742499828339,-0.079562447965145,0.025000000372529));
#368=IFCCARTESIANPOINT((0.717985808849335,-0.0745102018117905,0.025000000372529));
#369=IFCCARTESIANPOINT((0.695342659950256,-0.0593534633517263,0.025000000372529));
#370=IFCCARTESIANPOINT((0.6802778840065,-0.0354043431580064,0.025000000372529));
#371=IFCPOLYLOOP((#325,#326,#327,#328,#329,#330,#331,#332,#333,#334,#335,#336,#337,#338,#339,#340,#341,#342,#343,#344,#345,#346,#347,#348,#349,#350,#351,#352,#353,#354,#355,#356,#357,#358,#359,#360,#361,#362,#363,#364,#365,#366,#367,#368,#369,#370));
#372=IFCFACEBOUND(#371,.T.);
#373=IFCFACE((#372));
#374=IFCCARTESIANPOINT((0.650142252445221,-0.00372970383614336,0.));
#375=IFCCARTESIANPOINT((0.651816070079803,0.0198362041264772,0.));
#376=IFCCARTESIANPOINT((0.656837701797485,0.0406981781125066,0.));
#377=IFCCARTESIANPOINT((0.665206968784332,0.0588562190532682,0.));
#378=IFCCARTESIANPOINT((0.676924049854279,0.0743103325366972,0.));
#379=IFCCARTESIANPOINT((0.691286742687225,0.0866497084498407,0.));
#380=IFCCARTESIANPOINT((0.707593142986298,0.0954635441303251,0.));
#381=IFCCARTESIANPOINT((0.725843131542206,0.100751847028732,0.));
#382=IFCCARTESIANPOINT((0.74603682756424,0.102514617145061,0.));
#383=IFCCARTESIANPOINT((0.77238941192627,0.0992036759853361,0.));
#384=IFCCARTESIANPOINT((0.796019673347473,0.0892708674073216,0.));
#385=IFCCARTESIANPOINT((0.815640091896057,0.0734151527285577,0.));
#386=IFCCARTESIANPOINT((0.829962968826294,0.0523355118930338,0.));
#387=IFCCARTESIANPOINT((0.83871853351593,0.0270497556775809,0.));
#388=IFCCARTESIANPOINT((0.841637074947357,-0.00142431003041575,0.));
#389=IFCCARTESIANPOINT((0.838565230369568,-0.0302785206586121,0.));
#390=IFCCARTESIANPOINT((0.829349815845489,-0.0559198968112466,0.));
#391=IFCCARTESIANPOINT((0.814499616622925,-0.0770363211631774,0.));
#392=IFCCARTESIANPOINT((0.794523656368256,-0.0923156887292863,0.));
#393=IFCCARTESIANPOINT((0.77109569311142,-0.101586312055588,0.));
#394=IFCCARTESIANPOINT((0.745889663696289,-0.104676522314549,0.));
#395=IFCCARTESIANPOINT((0.719132363796234,-0.101261354982853,0.));
#396=IFCCARTESIANPOINT((0.695367157459259,-0.091015838086605,0.));
#397=IFCCARTESIANPOINT((0.67579585313797,-0.0748658180236818,0.));
#398=IFCCARTESIANPOINT((0.661620140075684,-0.0537371300160888,0.));
#399=IFCCARTESIANPOINT((0.653011679649353,-0.0294262617826464,0.));
#400=IFCCARTESIANPOINT((0.675256311893463,-0.00397495832294255,0.));
#401=IFCCARTESIANPOINT((0.6802778840065,-0.0354043431580064,0.));
#402=IFCCARTESIANPOINT((0.695342659950256,-0.0593534633517263,0.));
#403=IFCCARTESIANPOINT((0.717985808849335,-0.0745102018117905,0.));
#404=IFCCARTESIANPOINT((0.745742499828339,-0.079562447965145,0.));
#405=IFCCARTESIANPOINT((0.773903846740723,-0.07446114718914,0.));
#406=IFCCARTESIANPOINT((0.796583771705627,-0.0591572560369969,0.));
#407=IFCCARTESIANPOINT((0.80530720949173,-0.0478847399353985,0.));
#408=IFCCARTESIANPOINT((0.81153815984726,-0.0344723761081697,0.));
#409=IFCCARTESIANPOINT((0.816523015499115,-0.00122810632456125,0.));
#410=IFCCARTESIANPOINT((0.814389288425445,0.0210042297840115,0.));
#411=IFCCARTESIANPOINT((0.807988107204437,0.0402199327945712,0.));
#412=IFCCARTESIANPOINT((0.797485113143921,0.0559346228837969,0.));
#413=IFCCARTESIANPOINT((0.783045709133148,0.0676639303565028,0.));
#414=IFCCARTESIANPOINT((0.765626490116119,0.074966385960579,0.));
#415=IFCCARTESIANPOINT((0.746183931827545,0.0774005353450775,0.));
#416=IFCCARTESIANPOINT((0.719169139862061,0.0727100446820262,0.));
#417=IFCCARTESIANPOINT((0.696201026439667,0.0586385577917101,0.));
#418=IFCCARTESIANPOINT((0.687037706375122,0.0476894676685332,0.));
#419=IFCCARTESIANPOINT((0.680492460727692,0.0336041860282421,0.));
#420=IFCPOLYLOOP((#374,#375,#376,#377,#378,#379,#380,#381,#382,#383,#384,#385,#386,#387,#388,#389,#390,#391,#392,#393,#394,#395,#396,#397,#398,#399,#400,#401,#402,#403,#404,#405,#406,#407,#408,#409,#410,#411,#412,#413,#414,#415,#416,#417,#418,#419));
#421=IFCFACEBOUND(#420,.T.);
#422=IFCFACE((#421));
#423=IFCCARTESIANPOINT((0.67579585313797,-0.0748658180236818,0.025000000372529));
#424=IFCCARTESIANPOINT((0.661620140075684,-0.0537371300160888,0.025000000372529));
#425=IFCCARTESIANPOINT((0.661620140075684,-0.0537371300160888,0.));
#426=IFCCARTESIANPOINT((0.67579585313797,-0.0748658180236818,0.));
#427=IFCPOLYLOOP((#423,#424,#425,#426));
#428=IFCFACEBOUND(#427,.T.);
#429=IFCFACE((#428));
#430=IFCCARTESIANPOINT((0.815640091896057,0.0734151527285577,0.025000000372529));
#431=IFCCARTESIANPOINT((0.829962968826294,0.0523355118930338,0.025000000372529));
#432=IFCCARTESIANPOINT((0.829962968826294,0.0523355118930338,0.));
#433=IFCCARTESIANPOINT((0.815640091896057,0.0734151527285577,0.));
#434=IFCPOLYLOOP((#430,#431,#432,#433));
#435=IFCFACEBOUND(#434,.T.);
#436=IFCFACE((#435));
#437=IFCCARTESIANPOINT((0.796019673347473,0.0892708674073216,0.025000000372529));
#438=IFCCARTESIANPOINT((0.815640091896057,0.0734151527285577,0.025000000372529));
#439=IFCCARTESIANPOINT((0.815640091896057,0.0734151527285577,0.));
#440=IFCCARTESIANPOINT((0.796019673347473,0.0892708674073216,0.));
#441=IFCPOLYLOOP((#437,#438,#439,#440));
#442=IFCFACEBOUND(#441,.T.);
#443=IFCFACE((#442));
#444=IFCCARTESIANPOINT((0.661620140075684,-0.0537371300160888,0.025000000372529));
#445=IFCCARTESIANPOINT((0.653011679649353,-0.0294262617826464,0.025000000372529));
#446=IFCCARTESIANPOINT((0.653011679649353,-0.0294262617826464,0.));
#447=IFCCARTESIANPOINT((0.661620140075684,-0.0537371300160888,0.));
#448=IFCPOLYLOOP((#444,#445,#446,#447));
#449=IFCFACEBOUND(#448,.T.);
#450=IFCFACE((#449));
#451=IFCCARTESIANPOINT((0.653011679649353,-0.0294262617826464,0.025000000372529));
#452=IFCCARTESIANPOINT((0.650142252445221,-0.00372970383614336,0.025000000372529));
#453=IFCCARTESIANPOINT((0.650142252445221,-0.00372970383614336,0.));
#454=IFCCARTESIANPOINT((0.653011679649353,-0.0294262617826464,0.));
#455=IFCPOLYLOOP((#451,#452,#453,#454));
#456=IFCFACEBOUND(#455,.T.);
#457=IFCFACE((#456));
#458=IFCCARTESIANPOINT((0.74603682756424,0.102514617145061,0.025000000372529));
#459=IFCCARTESIANPOINT((0.77238941192627,0.0992036759853361,0.025000000372529));
#460=IFCCARTESIANPOINT((0.77238941192627,0.0992036759853361,0.));
#461=IFCCARTESIANPOINT((0.74603682756424,0.102514617145061,0.));
#462=IFCPOLYLOOP((#458,#459,#460,#461));
#463=IFCFACEBOUND(#462,.T.);
#464=IFCFACE((#463));
#465=IFCCARTESIANPOINT((0.707593142986298,0.0954635441303251,0.025000000372529));
#466=IFCCARTESIANPOINT((0.725843131542206,0.100751847028732,0.025000000372529));
#467=IFCCARTESIANPOINT((0.725843131542206,0.100751847028732,0.));
#468=IFCCARTESIANPOINT((0.707593142986298,0.0954635441303251,0.));
#469=IFCPOLYLOOP((#465,#466,#467,#468));
#470=IFCFACEBOUND(#469,.T.);
#471=IFCFACE((#470));
#472=IFCCARTESIANPOINT((0.725843131542206,0.100751847028732,0.025000000372529));
#473=IFCCARTESIANPOINT((0.74603682756424,0.102514617145061,0.025000000372529));
#474=IFCCARTESIANPOINT((0.74603682756424,0.102514617145061,0.));
#475=IFCCARTESIANPOINT((0.725843131542206,0.100751847028732,0.));
#476=IFCPOLYLOOP((#472,#473,#474,#475));
#477=IFCFACEBOUND(#476,.T.);
#478=IFCFACE((#477));
#479=IFCCARTESIANPOINT((0.719169139862061,0.0727100446820262,0.025000000372529));
#480=IFCCARTESIANPOINT((0.696201026439667,0.0586385577917101,0.025000000372529));
#481=IFCCARTESIANPOINT((0.696201026439667,0.0586385577917101,0.));
#482=IFCCARTESIANPOINT((0.719169139862061,0.0727100446820262,0.));
#483=IFCPOLYLOOP((#479,#480,#481,#482));
#484=IFCFACEBOUND(#483,.T.);
#485=IFCFACE((#484));
#486=IFCCARTESIANPOINT((0.691286742687225,0.0866497084498407,0.025000000372529));
#487=IFCCARTESIANPOINT((0.707593142986298,0.0954635441303251,0.025000000372529));
#488=IFCCARTESIANPOINT((0.707593142986298,0.0954635441303251,0.));
#489=IFCCARTESIANPOINT((0.691286742687225,0.0866497084498407,0.));
#490=IFCPOLYLOOP((#486,#487,#488,#489));
#491=IFCFACEBOUND(#490,.T.);
#492=IFCFACE((#491));
#493=IFCCARTESIANPOINT((0.746183931827545,0.0774005353450775,0.025000000372529));
#494=IFCCARTESIANPOINT((0.719169139862061,0.0727100446820262,0.025000000372529));
#495=IFCCARTESIANPOINT((0.719169139862061,0.0727100446820262,0.));
#496=IFCCARTESIANPOINT((0.746183931827545,0.0774005353450775,0.));
#497=IFCPOLYLOOP((#493,#494,#495,#496));
#498=IFCFACEBOUND(#497,.T.);
#499=IFCFACE((#498));
#500=IFCCARTESIANPOINT((0.765626490116119,0.074966385960579,0.025000000372529));
#501=IFCCARTESIANPOINT((0.746183931827545,0.0774005353450775,0.025000000372529));
#502=IFCCARTESIANPOINT((0.746183931827545,0.0774005353450775,0.));
#503=IFCCARTESIANPOINT((0.765626490116119,0.074966385960579,0.));
#504=IFCPOLYLOOP((#500,#501,#502,#503));
#505=IFCFACEBOUND(#504,.T.);
#506=IFCFACE((#505));
#507=IFCCARTESIANPOINT((0.77238941192627,0.0992036759853361,0.025000000372529));
#508=IFCCARTESIANPOINT((0.796019673347473,0.0892708674073216,0.025000000372529));
#509=IFCCARTESIANPOINT((0.796019673347473,0.0892708674073216,0.));
#510=IFCCARTESIANPOINT((0.77238941192627,0.0992036759853361,0.));
#511=IFCPOLYLOOP((#507,#508,#509,#510));
#512=IFCFACEBOUND(#511,.T.);
#513=IFCFACE((#512));
#514=IFCCARTESIANPOINT((0.687037706375122,0.0476894676685332,0.025000000372529));
#515=IFCCARTESIANPOINT((0.680492460727692,0.0336041860282421,0.025000000372529));
#516=IFCCARTESIANPOINT((0.680492460727692,0.0336041860282421,0.));
#517=IFCCARTESIANPOINT((0.687037706375122,0.0476894676685332,0.));
#518=IFCPOLYLOOP((#514,#515,#516,#517));
#519=IFCFACEBOUND(#518,.T.);
#520=IFCFACE((#519));
#521=IFCCARTESIANPOINT((0.696201026439667,0.0586385577917101,0.025000000372529));
#522=IFCCARTESIANPOINT((0.687037706375122,0.0476894676685332,0.025000000372529));
#523=IFCCARTESIANPOINT((0.687037706375122,0.0476894676685332,0.));
#524=IFCCARTESIANPOINT((0.696201026439667,0.0586385577917101,0.));
#525=IFCPOLYLOOP((#521,#522,#523,#524));
#526=IFCFACEBOUND(#525,.T.);
#527=IFCFACE((#526));
#528=IFCCARTESIANPOINT((0.680492460727692,0.0336041860282421,0.025000000372529));
#529=IFCCARTESIANPOINT((0.675256311893463,-0.00397495832294255,0.025000000372529));
#530=IFCCARTESIANPOINT((0.675256311893463,-0.00397495832294255,0.));
#531=IFCCARTESIANPOINT((0.680492460727692,0.0336041860282421,0.));
#532=IFCPOLYLOOP((#528,#529,#530,#531));
#533=IFCFACEBOUND(#532,.T.);
#534=IFCFACE((#533));
#535=IFCCARTESIANPOINT((0.796583771705627,-0.0591572560369969,0.025000000372529));
#536=IFCCARTESIANPOINT((0.80530720949173,-0.0478847399353985,0.025000000372529));
#537=IFCCARTESIANPOINT((0.80530720949173,-0.0478847399353985,0.));
#538=IFCCARTESIANPOINT((0.796583771705627,-0.0591572560369969,0.));
#539=IFCPOLYLOOP((#535,#536,#537,#538));
#540=IFCFACEBOUND(#539,.T.);
#541=IFCFACE((#540));
#542=IFCCARTESIANPOINT((0.80530720949173,-0.0478847399353985,0.025000000372529));
#543=IFCCARTESIANPOINT((0.81153815984726,-0.0344723761081697,0.025000000372529));
#544=IFCCARTESIANPOINT((0.81153815984726,-0.0344723761081697,0.));
#545=IFCCARTESIANPOINT((0.80530720949173,-0.0478847399353985,0.));
#546=IFCPOLYLOOP((#542,#543,#544,#545));
#547=IFCFACEBOUND(#546,.T.);
#548=IFCFACE((#547));
#549=IFCCARTESIANPOINT((0.81153815984726,-0.0344723761081697,0.025000000372529));
#550=IFCCARTESIANPOINT((0.816523015499115,-0.00122810632456125,0.025000000372529));
#551=IFCCARTESIANPOINT((0.816523015499115,-0.00122810632456125,0.));
#552=IFCCARTESIANPOINT((0.81153815984726,-0.0344723761081697,0.));
#553=IFCPOLYLOOP((#549,#550,#551,#552));
#554=IFCFACEBOUND(#553,.T.);
#555=IFCFACE((#554));
#556=IFCCARTESIANPOINT((0.816523015499115,-0.00122810632456125,0.025000000372529));
#557=IFCCARTESIANPOINT((0.814389288425445,0.0210042297840115,0.025000000372529));
#558=IFCCARTESIANPOINT((0.814389288425445,0.0210042297840115,0.));
#559=IFCCARTESIANPOINT((0.816523015499115,-0.00122810632456125,0.));
#560=IFCPOLYLOOP((#556,#557,#558,#559));
#561=IFCFACEBOUND(#560,.T.);
#562=IFCFACE((#561));
#563=IFCCARTESIANPOINT((0.814389288425445,0.0210042297840115,0.025000000372529));
#564=IFCCARTESIANPOINT((0.807988107204437,0.0402199327945712,0.025000000372529));
#565=IFCCARTESIANPOINT((0.807988107204437,0.0402199327945712,0.));
#566=IFCCARTESIANPOINT((0.814389288425445,0.0210042297840115,0.));
#567=IFCPOLYLOOP((#563,#564,#565,#566));
#568=IFCFACEBOUND(#567,.T.);
#569=IFCFACE((#568));
#570=IFCCARTESIANPOINT((0.807988107204437,0.0402199327945712,0.025000000372529));
#571=IFCCARTESIANPOINT((0.797485113143921,0.0559346228837969,0.025000000372529));
#572=IFCCARTESIANPOINT((0.797485113143921,0.0559346228837969,0.));
#573=IFCCARTESIANPOINT((0.807988107204437,0.0402199327945712,0.));
#574=IFCPOLYLOOP((#570,#571,#572,#573));
#575=IFCFACEBOUND(#574,.T.);
#576=IFCFACE((#575));
#577=IFCCARTESIANPOINT((0.797485113143921,0.0559346228837969,0.025000000372529));
#578=IFCCARTESIANPOINT((0.783045709133148,0.0676639303565028,0.025000000372529));
#579=IFCCARTESIANPOINT((0.783045709133148,0.0676639303565028,0.));
#580=IFCCARTESIANPOINT((0.797485113143921,0.0559346228837969,0.));
#581=IFCPOLYLOOP((#577,#578,#579,#580));
#582=IFCFACEBOUND(#581,.T.);
#583=IFCFACE((#582));
#584=IFCCARTESIANPOINT((0.783045709133148,0.0676639303565028,0.025000000372529));
#585=IFCCARTESIANPOINT((0.765626490116119,0.074966385960579,0.025000000372529));
#586=IFCCARTESIANPOINT((0.765626490116119,0.074966385960579,0.));
#587=IFCCARTESIANPOINT((0.783045709133148,0.0676639303565028,0.));
#588=IFCPOLYLOOP((#584,#585,#586,#587));
#589=IFCFACEBOUND(#588,.T.);
#590=IFCFACE((#589));
#591=IFCCARTESIANPOINT((0.675256311893463,-0.00397495832294255,0.025000000372529));
#592=IFCCARTESIANPOINT((0.6802778840065,-0.0354043431580064,0.025000000372529));
#593=IFCCARTESIANPOINT((0.6802778840065,-0.0354043431580064,0.));
#594=IFCCARTESIANPOINT((0.675256311893463,-0.00397495832294255,0.));
#595=IFCPOLYLOOP((#591,#592,#593,#594));
#596=IFCFACEBOUND(#595,.T.);
#597=IFCFACE((#596));
#598=IFCCARTESIANPOINT((0.6802778840065,-0.0354043431580064,0.025000000372529));
#599=IFCCARTESIANPOINT((0.695342659950256,-0.0593534633517263,0.025000000372529));
#600=IFCCARTESIANPOINT((0.695342659950256,-0.0593534633517263,0.));
#601=IFCCARTESIANPOINT((0.6802778840065,-0.0354043431580064,0.));
#602=IFCPOLYLOOP((#598,#599,#600,#601));
#603=IFCFACEBOUND(#602,.T.);
#604=IFCFACE((#603));
#605=IFCCARTESIANPOINT((0.695342659950256,-0.0593534633517263,0.025000000372529));
#606=IFCCARTESIANPOINT((0.717985808849335,-0.0745102018117905,0.025000000372529));
#607=IFCCARTESIANPOINT((0.717985808849335,-0.0745102018117905,0.));
#608=IFCCARTESIANPOINT((0.695342659950256,-0.0593534633517263,0.));
#609=IFCPOLYLOOP((#605,#606,#607,#608));
#610=IFCFACEBOUND(#609,.T.);
#611=IFCFACE((#610));
#612=IFCCARTESIANPOINT((0.717985808849335,-0.0745102018117905,0.025000000372529));
#613=IFCCARTESIANPOINT((0.745742499828339,-0.079562447965145,0.025000000372529));
#614=IFCCARTESIANPOINT((0.745742499828339,-0.079562447965145,0.));
#615=IFCCARTESIANPOINT((0.717985808849335,-0.0745102018117905,0.));
#616=IFCPOLYLOOP((#612,#613,#614,#615));
#617=IFCFACEBOUND(#616,.T.);
#618=IFCFACE((#617));
#619=IFCCARTESIANPOINT((0.745742499828339,-0.079562447965145,0.025000000372529));
#620=IFCCARTESIANPOINT((0.773903846740723,-0.07446114718914,0.025000000372529));
#621=IFCCARTESIANPOINT((0.773903846740723,-0.07446114718914,0.));
#622=IFCCARTESIANPOINT((0.745742499828339,-0.079562447965145,0.));
#623=IFCPOLYLOOP((#619,#620,#621,#622));
#624=IFCFACEBOUND(#623,.T.);
#625=IFCFACE((#624));
#626=IFCCARTESIANPOINT((0.773903846740723,-0.07446114718914,0.025000000372529));
#627=IFCCARTESIANPOINT((0.796583771705627,-0.0591572560369969,0.025000000372529));
#628=IFCCARTESIANPOINT((0.796583771705627,-0.0591572560369969,0.));
#629=IFCCARTESIANPOINT((0.773903846740723,-0.07446114718914,0.));
#630=IFCPOLYLOOP((#626,#627,#628,#629));
#631=IFCFACEBOUND(#630,.T.);
#632=IFCFACE((#631));
#633=IFCCARTESIANPOINT((0.650142252445221,-0.00372970383614336,0.025000000372529));
#634=IFCCARTESIANPOINT((0.651816070079803,0.0198362041264772,0.025000000372529));
#635=IFCCARTESIANPOINT((0.651816070079803,0.0198362041264772,0.));
#636=IFCCARTESIANPOINT((0.650142252445221,-0.00372970383614336,0.));
#637=IFCPOLYLOOP((#633,#634,#635,#636));
#638=IFCFACEBOUND(#637,.T.);
#639=IFCFACE((#638));
#640=IFCCARTESIANPOINT((0.651816070079803,0.0198362041264772,0.025000000372529));
#641=IFCCARTESIANPOINT((0.656837701797485,0.0406981781125066,0.025000000372529));
#642=IFCCARTESIANPOINT((0.656837701797485,0.0406981781125066,0.));
#643=IFCCARTESIANPOINT((0.651816070079803,0.0198362041264772,0.));
#644=IFCPOLYLOOP((#640,#641,#642,#643));
#645=IFCFACEBOUND(#644,.T.);
#646=IFCFACE((#645));
#647=IFCCARTESIANPOINT((0.695367157459259,-0.091015838086605,0.025000000372529));
#648=IFCCARTESIANPOINT((0.67579585313797,-0.0748658180236818,0.025000000372529));
#649=IFCCARTESIANPOINT((0.67579585313797,-0.0748658180236818,0.));
#650=IFCCARTESIANPOINT((0.695367157459259,-0.091015838086605,0.));
#651=IFCPOLYLOOP((#647,#648,#649,#650));
#652=IFCFACEBOUND(#651,.T.);
#653=IFCFACE((#652));
#654=IFCCARTESIANPOINT((0.719132363796234,-0.101261354982853,0.025000000372529));
#655=IFCCARTESIANPOINT((0.695367157459259,-0.091015838086605,0.025000000372529));
#656=IFCCARTESIANPOINT((0.695367157459259,-0.091015838086605,0.));
#657=IFCCARTESIANPOINT((0.719132363796234,-0.101261354982853,0.));
#658=IFCPOLYLOOP((#654,#655,#656,#657));
#659=IFCFACEBOUND(#658,.T.);
#660=IFCFACE((#659));
#661=IFCCARTESIANPOINT((0.656837701797485,0.0406981781125066,0.025000000372529));
#662=IFCCARTESIANPOINT((0.665206968784332,0.0588562190532682,0.025000000372529));
#663=IFCCARTESIANPOINT((0.665206968784332,0.0588562190532682,0.));
#664=IFCCARTESIANPOINT((0.656837701797485,0.0406981781125066,0.));
#665=IFCPOLYLOOP((#661,#662,#663,#664));
#666=IFCFACEBOUND(#665,.T.);
#667=IFCFACE((#666));
#668=IFCCARTESIANPOINT((0.814499616622925,-0.0770363211631774,0.025000000372529));
#669=IFCCARTESIANPOINT((0.794523656368256,-0.0923156887292863,0.025000000372529));
#670=IFCCARTESIANPOINT((0.794523656368256,-0.0923156887292863,0.));
#671=IFCCARTESIANPOINT((0.814499616622925,-0.0770363211631774,0.));
#672=IFCPOLYLOOP((#668,#669,#670,#671));
#673=IFCFACEBOUND(#672,.T.);
#674=IFCFACE((#673));
#675=IFCCARTESIANPOINT((0.676924049854279,0.0743103325366972,0.025000000372529));
#676=IFCCARTESIANPOINT((0.691286742687225,0.0866497084498407,0.025000000372529));
#677=IFCCARTESIANPOINT((0.691286742687225,0.0866497084498407,0.));
#678=IFCCARTESIANPOINT((0.676924049854279,0.0743103325366972,0.));
#679=IFCPOLYLOOP((#675,#676,#677,#678));
#680=IFCFACEBOUND(#679,.T.);
#681=IFCFACE((#680));
#682=IFCCARTESIANPOINT((0.665206968784332,0.0588562190532682,0.025000000372529));
#683=IFCCARTESIANPOINT((0.676924049854279,0.0743103325366972,0.025000000372529));
#684=IFCCARTESIANPOINT((0.676924049854279,0.0743103325366972,0.));
#685=IFCCARTESIANPOINT((0.665206968784332,0.0588562190532682,0.));
#686=IFCPOLYLOOP((#682,#683,#684,#685));
#687=IFCFACEBOUND(#686,.T.);
#688=IFCFACE((#687));
#689=IFCCARTESIANPOINT((0.841637074947357,-0.00142431003041575,0.025000000372529));
#690=IFCCARTESIANPOINT((0.838565230369568,-0.0302785206586121,0.025000000372529));
#691=IFCCARTESIANPOINT((0.838565230369568,-0.0302785206586121,0.));
#692=IFCCARTESIANPOINT((0.841637074947357,-0.00142431003041575,0.));
#693=IFCPOLYLOOP((#689,#690,#691,#692));
#694=IFCFACEBOUND(#693,.T.);
#695=IFCFACE((#694));
#696=IFCCARTESIANPOINT((0.829962968826294,0.0523355118930338,0.025000000372529));
#697=IFCCARTESIANPOINT((0.83871853351593,0.0270497556775809,0.025000000372529));
#698=IFCCARTESIANPOINT((0.83871853351593,0.0270497556775809,0.));
#699=IFCCARTESIANPOINT((0.829962968826294,0.0523355118930338,0.));
#700=IFCPOLYLOOP((#696,#697,#698,#699));
#701=IFCFACEBOUND(#700,.T.);
#702=IFCFACE((#701));
#703=IFCCARTESIANPOINT((0.83871853351593,0.0270497556775809,0.025000000372529));
#704=IFCCARTESIANPOINT((0.841637074947357,-0.00142431003041575,0.025000000372529));
#705=IFCCARTESIANPOINT((0.841637074947357,-0.00142431003041575,0.));
#706=IFCCARTESIANPOINT((0.83871853351593,0.0270497556775809,0.));
#707=IFCPOLYLOOP((#703,#704,#705,#706));
#708=IFCFACEBOUND(#707,.T.);
#709=IFCFACE((#708));
#710=IFCCLOSEDSHELL((#296,#303,#310,#317,#324,#373,#422,#429,#436,#443,#450,#457,#464,#471,#478,#485,#492,#499,#506,#513,#520,#527,#534,#541,#548,#555,#562,#569,#576,#583,#590,#597,#604,#611,#618,#625,#632,#639,#646,#653,#660,#667,#674,#681,#688,#695,#702,#709));
#711=IFCFACETEDBREP(#710);
#712=IFCCARTESIANPOINT((-0.0784814953804016,0.400612980127335,0.025000000372529));
#713=IFCCARTESIANPOINT((-0.0533674135804176,0.400612980127335,0.025000000372529));
#714=IFCCARTESIANPOINT((-0.0533674135804176,0.559832274913788,0.025000000372529));
#715=IFCCARTESIANPOINT((0.0516015812754631,0.400612980127335,0.025000000372529));
#716=IFCCARTESIANPOINT((0.0784814953804016,0.400612980127335,0.025000000372529));
#717=IFCCARTESIANPOINT((0.0784814953804016,0.601525604724884,0.025000000372529));
#718=IFCCARTESIANPOINT((0.0533674135804176,0.601525604724884,0.025000000372529));
#719=IFCCARTESIANPOINT((0.0533674135804176,0.442355304956436,0.025000000372529));
#720=IFCCARTESIANPOINT((-0.0516015812754631,0.601525604724884,0.025000000372529));
#721=IFCCARTESIANPOINT((-0.0784814953804016,0.601525604724884,0.025000000372529));
#722=IFCPOLYLOOP((#712,#713,#714,#715,#716,#717,#718,#719,#720,#721));
#723=IFCFACEBOUND(#722,.T.);
#724=IFCFACE((#723));
#725=IFCCARTESIANPOINT((-0.0516015812754631,0.601525604724884,0.025000000372529));
#726=IFCCARTESIANPOINT((0.0533674135804176,0.442355304956436,0.025000000372529));
#727=IFCCARTESIANPOINT((0.0533674135804176,0.442355304956436,0.));
#728=IFCCARTESIANPOINT((-0.0516015812754631,0.601525604724884,0.));
#729=IFCPOLYLOOP((#725,#726,#727,#728));
#730=IFCFACEBOUND(#729,.T.);
#731=IFCFACE((#730));
#732=IFCCARTESIANPOINT((0.0533674135804176,0.601525604724884,0.025000000372529));
#733=IFCCARTESIANPOINT((0.0784814953804016,0.601525604724884,0.025000000372529));
#734=IFCCARTESIANPOINT((0.0784814953804016,0.601525604724884,0.));
#735=IFCCARTESIANPOINT((0.0533674135804176,0.601525604724884,0.));
#736=IFCPOLYLOOP((#732,#733,#734,#735));
#737=IFCFACEBOUND(#736,.T.);
#738=IFCFACE((#737));
#739=IFCCARTESIANPOINT((-0.0533674135804176,0.400612980127335,0.025000000372529));
#740=IFCCARTESIANPOINT((-0.0784814953804016,0.400612980127335,0.025000000372529));
#741=IFCCARTESIANPOINT((-0.0784814953804016,0.400612980127335,0.));
#742=IFCCARTESIANPOINT((-0.0533674135804176,0.400612980127335,0.));
#743=IFCPOLYLOOP((#739,#740,#741,#742));
#744=IFCFACEBOUND(#743,.T.);
#745=IFCFACE((#744));
#746=IFCCARTESIANPOINT((-0.0533674135804176,0.559832274913788,0.025000000372529));
#747=IFCCARTESIANPOINT((-0.0533674135804176,0.400612980127335,0.025000000372529));
#748=IFCCARTESIANPOINT((-0.0533674135804176,0.400612980127335,0.));
#749=IFCCARTESIANPOINT((-0.0533674135804176,0.559832274913788,0.));
#750=IFCPOLYLOOP((#746,#747,#748,#749));
#751=IFCFACEBOUND(#750,.T.);
#752=IFCFACE((#751));
#753=IFCCARTESIANPOINT((0.0784814953804016,0.400612980127335,0.025000000372529));
#754=IFCCARTESIANPOINT((0.0516015812754631,0.400612980127335,0.025000000372529));
#755=IFCCARTESIANPOINT((0.0516015812754631,0.400612980127335,0.));
#756=IFCCARTESIANPOINT((0.0784814953804016,0.400612980127335,0.));
#757=IFCPOLYLOOP((#753,#754,#755,#756));
#758=IFCFACEBOUND(#757,.T.);
#759=IFCFACE((#758));
#760=IFCCARTESIANPOINT((0.0784814953804016,0.601525604724884,0.025000000372529));
#761=IFCCARTESIANPOINT((0.0784814953804016,0.400612980127335,0.025000000372529));
#762=IFCCARTESIANPOINT((0.0784814953804016,0.400612980127335,0.));
#763=IFCCARTESIANPOINT((0.0784814953804016,0.601525604724884,0.));
#764=IFCPOLYLOOP((#760,#761,#762,#763));
#765=IFCFACEBOUND(#764,.T.);
#766=IFCFACE((#765));
#767=IFCCARTESIANPOINT((-0.0784814953804016,0.400612980127335,0.));
#768=IFCCARTESIANPOINT((-0.0784814953804016,0.601525604724884,0.));
#769=IFCCARTESIANPOINT((-0.0516015812754631,0.601525604724884,0.));
#770=IFCCARTESIANPOINT((0.0533674135804176,0.442355304956436,0.));
#771=IFCCARTESIANPOINT((0.0533674135804176,0.601525604724884,0.));
#772=IFCCARTESIANPOINT((0.0784814953804016,0.601525604724884,0.));
#773=IFCCARTESIANPOINT((0.0784814953804016,0.400612980127335,0.));
#774=IFCCARTESIANPOINT((0.0516015812754631,0.400612980127335,0.));
#775=IFCCARTESIANPOINT((-0.0533674135804176,0.559832274913788,0.));
#776=IFCCARTESIANPOINT((-0.0533674135804176,0.400612980127335,0.));
#777=IFCPOLYLOOP((#767,#768,#769,#770,#771,#772,#773,#774,#775,#776));
#778=IFCFACEBOUND(#777,.T.);
#779=IFCFACE((#778));
#780=IFCCARTESIANPOINT((0.0533674135804176,0.442355304956436,0.025000000372529));
#781=IFCCARTESIANPOINT((0.0533674135804176,0.601525604724884,0.025000000372529));
#782=IFCCARTESIANPOINT((0.0533674135804176,0.601525604724884,0.));
#783=IFCCARTESIANPOINT((0.0533674135804176,0.442355304956436,0.));
#784=IFCPOLYLOOP((#780,#781,#782,#783));
#785=IFCFACEBOUND(#784,.T.);
#786=IFCFACE((#785));
#787=IFCCARTESIANPOINT((0.0516015812754631,0.400612980127335,0.025000000372529));
#788=IFCCARTESIANPOINT((-0.0533674135804176,0.559832274913788,0.025000000372529));
#789=IFCCARTESIANPOINT((-0.0533674135804176,0.559832274913788,0.));
#790=IFCCARTESIANPOINT((0.0516015812754631,0.400612980127335,0.));
#791=IFCPOLYLOOP((#787,#788,#789,#790));
#792=IFCFACEBOUND(#791,.T.);
#793=IFCFACE((#792));
#794=IFCCARTESIANPOINT((-0.0784814953804016,0.400612980127335,0.025000000372529));
#795=IFCCARTESIANPOINT((-0.0784814953804016,0.601525604724884,0.025000000372529));
#796=IFCCARTESIANPOINT((-0.0784814953804016,0.601525604724884,0.));
#797=IFCCARTESIANPOINT((-0.0784814953804016,0.400612980127335,0.));
#798=IFCPOLYLOOP((#794,#795,#796,#797));
#799=IFCFACEBOUND(#798,.T.);
#800=IFCFACE((#799));
#801=IFCCARTESIANPOINT((-0.0784814953804016,0.601525604724884,0.025000000372529));
#802=IFCCARTESIANPOINT((-0.0516015812754631,0.601525604724884,0.025000000372529));
#803=IFCCARTESIANPOINT((-0.0516015812754631,0.601525604724884,0.));
#804=IFCCARTESIANPOINT((-0.0784814953804016,0.601525604724884,0.));
#805=IFCPOLYLOOP((#801,#802,#803,#804));
#806=IFCFACEBOUND(#805,.T.);
#807=IFCFACE((#806));
#808=IFCCLOSEDSHELL((#724,#731,#738,#745,#752,#759,#766,#779,#786,#793,#800,#807));
#809=IFCFACETEDBREP(#808);
#810=IFCCARTESIANPOINT((-0.839721858501434,-0.0906706377863882,0.));
#811=IFCCARTESIANPOINT((-0.894511759281158,0.110241986811161,0.));
#812=IFCCARTESIANPOINT((-0.868612825870514,0.110241986811161,0.));
#813=IFCCARTESIANPOINT((-0.836827874183655,-0.0218031257390972,0.));
#814=IFCCARTESIANPOINT((-0.827017664909363,-0.0625644475221637,0.));
#815=IFCCARTESIANPOINT((-0.816520750522613,-0.026512015610933,0.));
#816=IFCCARTESIANPOINT((-0.776691436767578,0.110241986811161,0.));
#817=IFCCARTESIANPOINT((-0.739363670349121,0.110241986811161,0.));
#818=IFCCARTESIANPOINT((-0.710423588752747,0.0111100496724247,0.));
#819=IFCCARTESIANPOINT((-0.688890218734741,-0.0625644475221637,0.));
#820=IFCCARTESIANPOINT((-0.67937433719635,-0.0229803491383793,0.));
#821=IFCCARTESIANPOINT((-0.64734411239624,0.110241986811161,0.));
#822=IFCCARTESIANPOINT((-0.62139618396759,0.110241986811161,0.));
#823=IFCCARTESIANPOINT((-0.67613697052002,-0.0906706377863882,0.));
#824=IFCCARTESIANPOINT((-0.703016877174377,-0.0906706377863882,0.));
#825=IFCCARTESIANPOINT((-0.751233994960785,0.06433030962944,0.));
#826=IFCCARTESIANPOINT((-0.757953941822052,0.0859617739915848,0.));
#827=IFCCARTESIANPOINT((-0.765507817268372,0.0599157288670539,0.));
#828=IFCCARTESIANPOINT((-0.809408366680145,-0.0906706377863882,0.));
#829=IFCPOLYLOOP((#810,#811,#812,#813,#814,#815,#816,#817,#818,#819,#820,#821,#822,#823,#824,#825,#826,#827,#828));
#830=IFCFACEBOUND(#829,.T.);
#831=IFCFACE((#830));
#832=IFCCARTESIANPOINT((-0.839721858501434,-0.0906706377863882,0.025000000372529));
#833=IFCCARTESIANPOINT((-0.809408366680145,-0.0906706377863882,0.025000000372529));
#834=IFCCARTESIANPOINT((-0.765507817268372,0.0599157288670539,0.025000000372529));
#835=IFCCARTESIANPOINT((-0.757953941822052,0.0859617739915848,0.025000000372529));
#836=IFCCARTESIANPOINT((-0.751233994960785,0.06433030962944,0.025000000372529));
#837=IFCCARTESIANPOINT((-0.703016877174377,-0.0906706377863882,0.025000000372529));
#838=IFCCARTESIANPOINT((-0.67613697052002,-0.0906706377863882,0.025000000372529));
#839=IFCCARTESIANPOINT((-0.62139618396759,0.110241986811161,0.025000000372529));
#840=IFCCARTESIANPOINT((-0.64734411239624,0.110241986811161,0.025000000372529));
#841=IFCCARTESIANPOINT((-0.67937433719635,-0.0229803491383793,0.025000000372529));
#842=IFCCARTESIANPOINT((-0.688890218734741,-0.0625644475221637,0.025000000372529));
#843=IFCCARTESIANPOINT((-0.710423588752747,0.0111100496724247,0.025000000372529));
#844=IFCCARTESIANPOINT((-0.739363670349121,0.110241986811161,0.025000000372529));
#845=IFCCARTESIANPOINT((-0.776691436767578,0.110241986811161,0.025000000372529));
#846=IFCCARTESIANPOINT((-0.816520750522613,-0.026512015610933,0.025000000372529));
#847=IFCCARTESIANPOINT((-0.827017664909363,-0.0625644475221637,0.025000000372529));
#848=IFCCARTESIANPOINT((-0.836827874183655,-0.0218031257390972,0.025000000372529));
#849=IFCCARTESIANPOINT((-0.868612825870514,0.110241986811161,0.025000000372529));
#850=IFCCARTESIANPOINT((-0.894511759281158,0.110241986811161,0.025000000372529));
#851=IFCPOLYLOOP((#832,#833,#834,#835,#836,#837,#838,#839,#840,#841,#842,#843,#844,#845,#846,#847,#848,#849,#850));
#852=IFCFACEBOUND(#851,.T.);
#853=IFCFACE((#852));
#854=IFCCARTESIANPOINT((-0.64734411239624,0.110241986811161,0.025000000372529));
#855=IFCCARTESIANPOINT((-0.62139618396759,0.110241986811161,0.025000000372529));
#856=IFCCARTESIANPOINT((-0.62139618396759,0.110241986811161,0.));
#857=IFCCARTESIANPOINT((-0.64734411239624,0.110241986811161,0.));
#858=IFCPOLYLOOP((#854,#855,#856,#857));
#859=IFCFACEBOUND(#858,.T.);
#860=IFCFACE((#859));
#861=IFCCARTESIANPOINT((-0.62139618396759,0.110241986811161,0.025000000372529));
#862=IFCCARTESIANPOINT((-0.67613697052002,-0.0906706377863882,0.025000000372529));
#863=IFCCARTESIANPOINT((-0.67613697052002,-0.0906706377863882,0.));
#864=IFCCARTESIANPOINT((-0.62139618396759,0.110241986811161,0.));
#865=IFCPOLYLOOP((#861,#862,#863,#864));
#866=IFCFACEBOUND(#865,.T.);
#867=IFCFACE((#866));
#868=IFCCARTESIANPOINT((-0.67613697052002,-0.0906706377863882,0.025000000372529));
#869=IFCCARTESIANPOINT((-0.703016877174377,-0.0906706377863882,0.025000000372529));
#870=IFCCARTESIANPOINT((-0.703016877174377,-0.0906706377863882,0.));
#871=IFCCARTESIANPOINT((-0.67613697052002,-0.0906706377863882,0.));
#872=IFCPOLYLOOP((#868,#869,#870,#871));
#873=IFCFACEBOUND(#872,.T.);
#874=IFCFACE((#873));
#875=IFCCARTESIANPOINT((-0.703016877174377,-0.0906706377863882,0.025000000372529));
#876=IFCCARTESIANPOINT((-0.751233994960785,0.06433030962944,0.025000000372529));
#877=IFCCARTESIANPOINT((-0.751233994960785,0.06433030962944,0.));
#878=IFCCARTESIANPOINT((-0.703016877174377,-0.0906706377863882,0.));
#879=IFCPOLYLOOP((#875,#876,#877,#878));
#880=IFCFACEBOUND(#879,.T.);
#881=IFCFACE((#880));
#882=IFCCARTESIANPOINT((-0.751233994960785,0.06433030962944,0.025000000372529));
#883=IFCCARTESIANPOINT((-0.757953941822052,0.0859617739915848,0.025000000372529));
#884=IFCCARTESIANPOINT((-0.757953941822052,0.0859617739915848,0.));
#885=IFCCARTESIANPOINT((-0.751233994960785,0.06433030962944,0.));
#886=IFCPOLYLOOP((#882,#883,#884,#885));
#887=IFCFACEBOUND(#886,.T.);
#888=IFCFACE((#887));
#889=IFCCARTESIANPOINT((-0.757953941822052,0.0859617739915848,0.025000000372529));
#890=IFCCARTESIANPOINT((-0.765507817268372,0.0599157288670539,0.025000000372529));
#891=IFCCARTESIANPOINT((-0.765507817268372,0.0599157288670539,0.));
#892=IFCCARTESIANPOINT((-0.757953941822052,0.0859617739915848,0.));
#893=IFCPOLYLOOP((#889,#890,#891,#892));
#894=IFCFACEBOUND(#893,.T.);
#895=IFCFACE((#894));
#896=IFCCARTESIANPOINT((-0.765507817268372,0.0599157288670539,0.025000000372529));
#897=IFCCARTESIANPOINT((-0.809408366680145,-0.0906706377863882,0.025000000372529));
#898=IFCCARTESIANPOINT((-0.809408366680145,-0.0906706377863882,0.));
#899=IFCCARTESIANPOINT((-0.765507817268372,0.0599157288670539,0.));
#900=IFCPOLYLOOP((#896,#897,#898,#899));
#901=IFCFACEBOUND(#900,.T.);
#902=IFCFACE((#901));
#903=IFCCARTESIANPOINT((-0.809408366680145,-0.0906706377863882,0.025000000372529));
#904=IFCCARTESIANPOINT((-0.839721858501434,-0.0906706377863882,0.025000000372529));
#905=IFCCARTESIANPOINT((-0.839721858501434,-0.0906706377863882,0.));
#906=IFCCARTESIANPOINT((-0.809408366680145,-0.0906706377863882,0.));
#907=IFCPOLYLOOP((#903,#904,#905,#906));
#908=IFCFACEBOUND(#907,.T.);
#909=IFCFACE((#908));
#910=IFCCARTESIANPOINT((-0.836827874183655,-0.0218031257390972,0.025000000372529));
#911=IFCCARTESIANPOINT((-0.827017664909363,-0.0625644475221637,0.025000000372529));
#912=IFCCARTESIANPOINT((-0.827017664909363,-0.0625644475221637,0.));
#913=IFCCARTESIANPOINT((-0.836827874183655,-0.0218031257390972,0.));
#914=IFCPOLYLOOP((#910,#911,#912,#913));
#915=IFCFACEBOUND(#914,.T.);
#916=IFCFACE((#915));
#917=IFCCARTESIANPOINT((-0.827017664909363,-0.0625644475221637,0.025000000372529));
#918=IFCCARTESIANPOINT((-0.816520750522613,-0.026512015610933,0.025000000372529));
#919=IFCCARTESIANPOINT((-0.816520750522613,-0.026512015610933,0.));
#920=IFCCARTESIANPOINT((-0.827017664909363,-0.0625644475221637,0.));
#921=IFCPOLYLOOP((#917,#918,#919,#920));
#922=IFCFACEBOUND(#921,.T.);
#923=IFCFACE((#922));
#924=IFCCARTESIANPOINT((-0.816520750522613,-0.026512015610933,0.025000000372529));
#925=IFCCARTESIANPOINT((-0.776691436767578,0.110241986811161,0.025000000372529));
#926=IFCCARTESIANPOINT((-0.776691436767578,0.110241986811161,0.));
#927=IFCCARTESIANPOINT((-0.816520750522613,-0.026512015610933,0.));
#928=IFCPOLYLOOP((#924,#925,#926,#927));
#929=IFCFACEBOUND(#928,.T.);
#930=IFCFACE((#929));
#931=IFCCARTESIANPOINT((-0.776691436767578,0.110241986811161,0.025000000372529));
#932=IFCCARTESIANPOINT((-0.739363670349121,0.110241986811161,0.025000000372529));
#933=IFCCARTESIANPOINT((-0.739363670349121,0.110241986811161,0.));
#934=IFCCARTESIANPOINT((-0.776691436767578,0.110241986811161,0.));
#935=IFCPOLYLOOP((#931,#932,#933,#934));
#936=IFCFACEBOUND(#935,.T.);
#937=IFCFACE((#936));
#938=IFCCARTESIANPOINT((-0.739363670349121,0.110241986811161,0.025000000372529));
#939=IFCCARTESIANPOINT((-0.710423588752747,0.0111100496724247,0.025000000372529));
#940=IFCCARTESIANPOINT((-0.710423588752747,0.0111100496724247,0.));
#941=IFCCARTESIANPOINT((-0.739363670349121,0.110241986811161,0.));
#942=IFCPOLYLOOP((#938,#939,#940,#941));
#943=IFCFACEBOUND(#942,.T.);
#944=IFCFACE((#943));
#945=IFCCARTESIANPOINT((-0.710423588752747,0.0111100496724247,0.025000000372529));
#946=IFCCARTESIANPOINT((-0.688890218734741,-0.0625644475221637,0.025000000372529));
#947=IFCCARTESIANPOINT((-0.688890218734741,-0.0625644475221637,0.));
#948=IFCCARTESIANPOINT((-0.710423588752747,0.0111100496724247,0.));
#949=IFCPOLYLOOP((#945,#946,#947,#948));
#950=IFCFACEBOUND(#949,.T.);
#951=IFCFACE((#950));
#952=IFCCARTESIANPOINT((-0.688890218734741,-0.0625644475221637,0.025000000372529));
#953=IFCCARTESIANPOINT((-0.67937433719635,-0.0229803491383793,0.025000000372529));
#954=IFCCARTESIANPOINT((-0.67937433719635,-0.0229803491383793,0.));
#955=IFCCARTESIANPOINT((-0.688890218734741,-0.0625644475221637,0.));
#956=IFCPOLYLOOP((#952,#953,#954,#955));
#957=IFCFACEBOUND(#956,.T.);
#958=IFCFACE((#957));
#959=IFCCARTESIANPOINT((-0.67937433719635,-0.0229803491383793,0.025000000372529));
#960=IFCCARTESIANPOINT((-0.64734411239624,0.110241986811161,0.025000000372529));
#961=IFCCARTESIANPOINT((-0.64734411239624,0.110241986811161,0.));
#962=IFCCARTESIANPOINT((-0.67937433719635,-0.0229803491383793,0.));
#963=IFCPOLYLOOP((#959,#960,#961,#962));
#964=IFCFACEBOUND(#963,.T.);
#965=IFCFACE((#964));
#966=IFCCARTESIANPOINT((-0.839721858501434,-0.0906706377863882,0.025000000372529));
#967=IFCCARTESIANPOINT((-0.894511759281158,0.110241986811161,0.025000000372529));
#968=IFCCARTESIANPOINT((-0.894511759281158,0.110241986811161,0.));
#969=IFCCARTESIANPOINT((-0.839721858501434,-0.0906706377863882,0.));
#970=IFCPOLYLOOP((#966,#967,#968,#969));
#971=IFCFACEBOUND(#970,.T.);
#972=IFCFACE((#971));
#973=IFCCARTESIANPOINT((-0.894511759281158,0.110241986811161,0.025000000372529));
#974=IFCCARTESIANPOINT((-0.868612825870514,0.110241986811161,0.025000000372529));
#975=IFCCARTESIANPOINT((-0.868612825870514,0.110241986811161,0.));
#976=IFCCARTESIANPOINT((-0.894511759281158,0.110241986811161,0.));
#977=IFCPOLYLOOP((#973,#974,#975,#976));
#978=IFCFACEBOUND(#977,.T.);
#979=IFCFACE((#978));
#980=IFCCARTESIANPOINT((-0.868612825870514,0.110241986811161,0.025000000372529));
#981=IFCCARTESIANPOINT((-0.836827874183655,-0.0218031257390972,0.025000000372529));
#982=IFCCARTESIANPOINT((-0.836827874183655,-0.0218031257390972,0.));
#983=IFCCARTESIANPOINT((-0.868612825870514,0.110241986811161,0.));
#984=IFCPOLYLOOP((#980,#981,#982,#983));
#985=IFCFACEBOUND(#984,.T.);
#986=IFCFACE((#985));
#987=IFCCLOSEDSHELL((#831,#853,#860,#867,#874,#881,#888,#895,#902,#909,#916,#923,#930,#937,#944,#951,#958,#965,#972,#979,#986));
#988=IFCFACETEDBREP(#987);
#989=IFCCARTESIANPOINT((0.499399989843403,1.44382283906452E-15,0.));
#990=IFCCARTESIANPOINT((4.06077759309077E-16,0.,0.));
#991=IFCCARTESIANPOINT((0.,0.249699994921685,0.));
#992=IFCPOLYLOOP((#989,#990,#991));
#993=IFCFACEBOUND(#992,.T.);
#994=IFCFACE((#993));
#995=IFCCARTESIANPOINT((0.0789583325386393,0.00200000009499587,0.172827646136284));
#996=IFCCARTESIANPOINT((0.0789583325386393,0.00200000009499587,0.126567378640175));
#997=IFCCARTESIANPOINT((0.104999996721779,0.00200000009499587,0.141602545976639));
#998=IFCCARTESIANPOINT((0.131041660904919,0.00200000009499587,0.126567378640175));
#999=IFCCARTESIANPOINT((0.180000007152592,0.00200000009499587,0.0983012691140175));
#1000=IFCCARTESIANPOINT((0.180000007152592,0.00200000009499587,0.138412982225418));
#1001=IFCCARTESIANPOINT((0.179203912615811,0.00200000009499587,0.145131692290306));
#1002=IFCCARTESIANPOINT((0.176859751343762,0.00200000009499587,0.151478335261345));
#1003=IFCCARTESIANPOINT((0.173097327351605,0.00200000009499587,0.157101407647133));
#1004=IFCCARTESIANPOINT((0.168125003576313,0.00200000009499587,0.161689519882202));
#1005=IFCCARTESIANPOINT((0.104999996721779,0.00200000009499587,0.198134750127792));
#1006=IFCCARTESIANPOINT((0.0846875011921275,0.00200000009499587,0.186407327651978));
#1007=IFCCARTESIANPOINT((0.0822574198246348,0.00200000009499587,0.183514386415482));
#1008=IFCCARTESIANPOINT((0.080449245870148,0.00200000009499587,0.180197030305862));
#1009=IFCCARTESIANPOINT((0.0793348029256213,0.00200000009499587,0.176586985588074));
#1010=IFCPOLYLOOP((#995,#996,#997,#998,#999,#1000,#1001,#1002,#1003,#1004,#1005,#1006,#1007,#1008,#1009));
#1011=IFCFACEBOUND(#1010,.T.);
#1012=IFCFACE((#1011));
#1013=IFCCARTESIANPOINT((0.131041660904919,0.00200000009499587,0.0803071036934853));
#1014=IFCCARTESIANPOINT((0.131041660904919,0.00200000009499587,0.126567378640175));
#1015=IFCCARTESIANPOINT((0.104999996721779,0.00200000009499587,0.111532211303711));
#1016=IFCCARTESIANPOINT((0.0789583325386393,0.00200000009499587,0.126567378640175));
#1017=IFCCARTESIANPOINT((0.0299999993294823,0.00200000009499587,0.154833480715752));
#1018=IFCCARTESIANPOINT((0.0299999993294823,0.00200000009499587,0.114721767604351));
#1019=IFCCARTESIANPOINT((0.0307960845530379,0.00200000009499587,0.108003057539463));
#1020=IFCCARTESIANPOINT((0.0331402495503771,0.00200000009499587,0.101656422019005));
#1021=IFCCARTESIANPOINT((0.0369026735425341,0.00200000009499587,0.0960333496332169));
#1022=IFCCARTESIANPOINT((0.0418750010431159,0.00200000009499587,0.0914452373981476));
#1023=IFCCARTESIANPOINT((0.104999996721779,0.00200000009499587,0.0549999997019768));
#1024=IFCCARTESIANPOINT((0.125312507152592,0.00200000009499587,0.0667274296283722));
#1025=IFCCARTESIANPOINT((0.127742573618923,0.00200000009499587,0.0696203634142876));
#1026=IFCCARTESIANPOINT((0.129550755023991,0.00200000009499587,0.0729377269744873));
#1027=IFCCARTESIANPOINT((0.130665197968518,0.00200000009499587,0.0765477642416954));
#1028=IFCPOLYLOOP((#1013,#1014,#1015,#1016,#1017,#1018,#1019,#1020,#1021,#1022,#1023,#1024,#1025,#1026,#1027));
#1029=IFCFACEBOUND(#1028,.T.);
#1030=IFCFACE((#1029));
#1031=IFCCARTESIANPOINT((0.104999996721779,0.,0.141602545976639));
#1032=IFCCARTESIANPOINT((0.0789583325386393,0.,0.126567378640175));
#1033=IFCCARTESIANPOINT((0.104999996721779,0.,0.111532211303711));
#1034=IFCCARTESIANPOINT((0.131041660904919,0.,0.126567378640175));
#1035=IFCPOLYLOOP((#1031,#1032,#1033,#1034));
#1036=IFCFACEBOUND(#1035,.T.);
#1037=IFCFACE((#1036));
#1038=IFCCARTESIANPOINT((4.06077759309077E-16,0.,0.300000011920929));
#1039=IFCCARTESIANPOINT((4.06077759309077E-16,0.,0.));
#1040=IFCCARTESIANPOINT((0.499399989843403,1.44382283906452E-15,0.));
#1041=IFCCARTESIANPOINT((0.499399989843403,1.44382283906452E-15,0.025000000372529));
#1042=IFCCARTESIANPOINT((0.0822574198246348,0.,0.183514386415482));
#1043=IFCCARTESIANPOINT((0.0846875011921275,0.,0.186407327651978));
#1044=IFCCARTESIANPOINT((0.104999996721779,0.,0.198134750127792));
#1045=IFCCARTESIANPOINT((0.168125003576313,0.,0.161689519882202));
#1046=IFCCARTESIANPOINT((0.173097327351605,0.,0.157101407647133));
#1047=IFCCARTESIANPOINT((0.176859751343762,0.,0.151478335261345));
#1048=IFCCARTESIANPOINT((0.179203912615811,0.,0.145131692290306));
#1049=IFCCARTESIANPOINT((0.180000007152592,0.,0.138412982225418));
#1050=IFCCARTESIANPOINT((0.180000007152592,0.,0.0983012691140175));
#1051=IFCCARTESIANPOINT((0.131041660904919,0.,0.126567378640175));
#1052=IFCCARTESIANPOINT((0.131041660904919,0.,0.0803071036934853));
#1053=IFCCARTESIANPOINT((0.130665197968518,0.,0.0765477642416954));
#1054=IFCCARTESIANPOINT((0.129550755023991,0.,0.0729377269744873));
#1055=IFCCARTESIANPOINT((0.127742573618923,0.,0.0696203634142876));
#1056=IFCCARTESIANPOINT((0.125312507152592,0.,0.0667274296283722));
#1057=IFCCARTESIANPOINT((0.104999996721779,0.,0.0549999997019768));
#1058=IFCCARTESIANPOINT((0.0418750010431159,0.,0.0914452373981476));
#1059=IFCCARTESIANPOINT((0.0369026735425341,0.,0.0960333496332169));
#1060=IFCCARTESIANPOINT((0.0331402495503771,0.,0.101656422019005));
#1061=IFCCARTESIANPOINT((0.0307960845530379,0.,0.108003057539463));
#1062=IFCCARTESIANPOINT((0.0299999993294823,0.,0.114721767604351));
#1063=IFCCARTESIANPOINT((0.0299999993294823,0.,0.154833480715752));
#1064=IFCCARTESIANPOINT((0.0789583325386393,0.,0.126567378640175));
#1065=IFCCARTESIANPOINT((0.0789583325386393,0.,0.172827646136284));
#1066=IFCCARTESIANPOINT((0.0793348029256213,0.,0.176586985588074));
#1067=IFCCARTESIANPOINT((0.080449245870148,0.,0.180197030305862));
#1068=IFCPOLYLOOP((#1038,#1039,#1040,#1041,#1042,#1043,#1044,#1045,#1046,#1047,#1048,#1049,#1050,#1051,#1052,#1053,#1054,#1055,#1056,#1057,#1058,#1059,#1060,#1061,#1062,#1063,#1064,#1065,#1066,#1067));
#1069=IFCFACEBOUND(#1068,.T.);
#1070=IFCFACE((#1069));
#1071=IFCCARTESIANPOINT((0.0307960845530379,0.,0.108003057539463));
#1072=IFCCARTESIANPOINT((0.0307960845530379,0.00200000009499587,0.108003057539463));
#1073=IFCCARTESIANPOINT((0.0299999993294823,0.00200000009499587,0.114721767604351));
#1074=IFCCARTESIANPOINT((0.0299999993294823,0.,0.114721767604351));
#1075=IFCPOLYLOOP((#1071,#1072,#1073,#1074));
#1076=IFCFACEBOUND(#1075,.T.);
#1077=IFCFACE((#1076));
#1078=IFCCARTESIANPOINT((0.104999996721779,0.,0.141602545976639));
#1079=IFCCARTESIANPOINT((0.131041660904919,0.,0.126567378640175));
#1080=IFCCARTESIANPOINT((0.131041660904919,0.00200000009499587,0.126567378640175));
#1081=IFCCARTESIANPOINT((0.104999996721779,0.00200000009499587,0.141602545976639));
#1082=IFCPOLYLOOP((#1078,#1079,#1080,#1081));
#1083=IFCFACEBOUND(#1082,.T.);
#1084=IFCFACE((#1083));
#1085=IFCCARTESIANPOINT((0.0418750010431159,0.00200000009499587,0.0914452373981476));
#1086=IFCCARTESIANPOINT((0.0418750010431159,0.,0.0914452373981476));
#1087=IFCCARTESIANPOINT((0.104999996721779,0.,0.0549999997019768));
#1088=IFCCARTESIANPOINT((0.104999996721779,0.00200000009499587,0.0549999997019768));
#1089=IFCPOLYLOOP((#1085,#1086,#1087,#1088));
#1090=IFCFACEBOUND(#1089,.T.);
#1091=IFCFACE((#1090));
#1092=IFCCARTESIANPOINT((4.06077759309077E-16,0.,0.300000011920929));
#1093=IFCCARTESIANPOINT((0.499399989843403,1.44382283906452E-15,0.025000000372529));
#1094=IFCCARTESIANPOINT((0.,0.249699994921685,0.025000000372529));
#1095=IFCPOLYLOOP((#1092,#1093,#1094));
#1096=IFCFACEBOUND(#1095,.T.);
#1097=IFCFACE((#1096));
#1098=IFCCARTESIANPOINT((0.,0.249699994921685,0.025000000372529));
#1099=IFCCARTESIANPOINT((0.499399989843403,1.44382283906452E-15,0.025000000372529));
#1100=IFCCARTESIANPOINT((0.499399989843403,1.44382283906452E-15,0.));
#1101=IFCCARTESIANPOINT((0.,0.249699994921685,0.));
#1102=IFCPOLYLOOP((#1098,#1099,#1100,#1101));
#1103=IFCFACEBOUND(#1102,.T.);
#1104=IFCFACE((#1103));
#1105=IFCCARTESIANPOINT((0.180000007152592,0.00200000009499587,0.0983012691140175));
#1106=IFCCARTESIANPOINT((0.180000007152592,0.,0.0983012691140175));
#1107=IFCCARTESIANPOINT((0.180000007152592,0.,0.138412982225418));
#1108=IFCCARTESIANPOINT((0.180000007152592,0.00200000009499587,0.138412982225418));
#1109=IFCPOLYLOOP((#1105,#1106,#1107,#1108));
#1110=IFCFACEBOUND(#1109,.T.);
#1111=IFCFACE((#1110));
#1112=IFCCARTESIANPOINT((0.131041660904919,0.00200000009499587,0.0803071036934853));
#1113=IFCCARTESIANPOINT((0.131041660904919,0.,0.0803071036934853));
#1114=IFCCARTESIANPOINT((0.131041660904919,0.,0.126567378640175));
#1115=IFCCARTESIANPOINT((0.131041660904919,0.00200000009499587,0.126567378640175));
#1116=IFCPOLYLOOP((#1112,#1113,#1114,#1115));
#1117=IFCFACEBOUND(#1116,.T.);
#1118=IFCFACE((#1117));
#1119=IFCCARTESIANPOINT((4.06077759309077E-16,0.,0.300000011920929));
#1120=IFCCARTESIANPOINT((0.,0.249699994921685,0.025000000372529));
#1121=IFCCARTESIANPOINT((0.,0.249699994921685,0.));
#1122=IFCCARTESIANPOINT((4.06077759309077E-16,0.,0.));
#1123=IFCPOLYLOOP((#1119,#1120,#1121,#1122));
#1124=IFCFACEBOUND(#1123,.T.);
#1125=IFCFACE((#1124));
#1126=IFCCARTESIANPOINT((0.0299999993294823,0.00200000009499587,0.154833480715752));
#1127=IFCCARTESIANPOINT((0.0299999993294823,0.,0.154833480715752));
#1128=IFCCARTESIANPOINT((0.0299999993294823,0.,0.114721767604351));
#1129=IFCCARTESIANPOINT((0.0299999993294823,0.00200000009499587,0.114721767604351));
#1130=IFCPOLYLOOP((#1126,#1127,#1128,#1129));
#1131=IFCFACEBOUND(#1130,.T.);
#1132=IFCFACE((#1131));
#1133=IFCCARTESIANPOINT((0.168125003576313,0.00200000009499587,0.161689519882202));
#1134=IFCCARTESIANPOINT((0.168125003576313,0.,0.161689519882202));
#1135=IFCCARTESIANPOINT((0.104999996721779,0.,0.198134750127792));
#1136=IFCCARTESIANPOINT((0.104999996721779,0.00200000009499587,0.198134750127792));
#1137=IFCPOLYLOOP((#1133,#1134,#1135,#1136));
#1138=IFCFACEBOUND(#1137,.T.);
#1139=IFCFACE((#1138));
#1140=IFCCARTESIANPOINT((0.104999996721779,0.,0.111532211303711));
#1141=IFCCARTESIANPOINT((0.0789583325386393,0.,0.126567378640175));
#1142=IFCCARTESIANPOINT((0.0789583325386393,0.00200000009499587,0.126567378640175));
#1143=IFCCARTESIANPOINT((0.104999996721779,0.00200000009499587,0.111532211303711));
#1144=IFCPOLYLOOP((#1140,#1141,#1142,#1143));
#1145=IFCFACEBOUND(#1144,.T.);
#1146=IFCFACE((#1145));
#1147=IFCCARTESIANPOINT((0.104999996721779,0.00200000009499587,0.198134750127792));
#1148=IFCCARTESIANPOINT((0.104999996721779,0.,0.198134750127792));
#1149=IFCCARTESIANPOINT((0.0846875011921275,0.,0.186407327651978));
#1150=IFCCARTESIANPOINT((0.0846875011921275,0.00200000009499587,0.186407327651978));
#1151=IFCPOLYLOOP((#1147,#1148,#1149,#1150));
#1152=IFCFACEBOUND(#1151,.T.);
#1153=IFCFACE((#1152));
#1154=IFCCARTESIANPOINT((0.131041660904919,0.00200000009499587,0.126567378640175));
#1155=IFCCARTESIANPOINT((0.131041660904919,0.,0.126567378640175));
#1156=IFCCARTESIANPOINT((0.104999996721779,0.,0.111532211303711));
#1157=IFCCARTESIANPOINT((0.104999996721779,0.00200000009499587,0.111532211303711));
#1158=IFCPOLYLOOP((#1154,#1155,#1156,#1157));
#1159=IFCFACEBOUND(#1158,.T.);
#1160=IFCFACE((#1159));
#1161=IFCCARTESIANPOINT((0.0369026735425341,0.,0.0960333496332169));
#1162=IFCCARTESIANPOINT((0.0418750010431159,0.,0.0914452373981476));
#1163=IFCCARTESIANPOINT((0.0418750010431159,0.00200000009499587,0.0914452373981476));
#1164=IFCCARTESIANPOINT((0.0369026735425341,0.00200000009499587,0.0960333496332169));
#1165=IFCPOLYLOOP((#1161,#1162,#1163,#1164));
#1166=IFCFACEBOUND(#1165,.T.);
#1167=IFCFACE((#1166));
#1168=IFCCARTESIANPOINT((0.0369026735425341,0.,0.0960333496332169));
#1169=IFCCARTESIANPOINT((0.0369026735425341,0.00200000009499587,0.0960333496332169));
#1170=IFCCARTESIANPOINT((0.0331402495503771,0.00200000009499587,0.101656422019005));
#1171=IFCCARTESIANPOINT((0.0331402495503771,0.,0.101656422019005));
#1172=IFCPOLYLOOP((#1168,#1169,#1170,#1171));
#1173=IFCFACEBOUND(#1172,.T.);
#1174=IFCFACE((#1173));
#1175=IFCCARTESIANPOINT((0.0331402495503771,0.,0.101656422019005));
#1176=IFCCARTESIANPOINT((0.0331402495503771,0.00200000009499587,0.101656422019005));
#1177=IFCCARTESIANPOINT((0.0307960845530379,0.00200000009499587,0.108003057539463));
#1178=IFCCARTESIANPOINT((0.0307960845530379,0.,0.108003057539463));
#1179=IFCPOLYLOOP((#1175,#1176,#1177,#1178));
#1180=IFCFACEBOUND(#1179,.T.);
#1181=IFCFACE((#1180));
#1182=IFCCARTESIANPOINT((0.0822574198246348,0.,0.183514386415482));
#1183=IFCCARTESIANPOINT((0.0822574198246348,0.00200000009499587,0.183514386415482));
#1184=IFCCARTESIANPOINT((0.0846875011921275,0.00200000009499587,0.186407327651978));
#1185=IFCCARTESIANPOINT((0.0846875011921275,0.,0.186407327651978));
#1186=IFCPOLYLOOP((#1182,#1183,#1184,#1185));
#1187=IFCFACEBOUND(#1186,.T.);
#1188=IFCFACE((#1187));
#1189=IFCCARTESIANPOINT((0.130665197968518,0.,0.0765477642416954));
#1190=IFCCARTESIANPOINT((0.131041660904919,0.,0.0803071036934853));
#1191=IFCCARTESIANPOINT((0.131041660904919,0.00200000009499587,0.0803071036934853));
#1192=IFCCARTESIANPOINT((0.130665197968518,0.00200000009499587,0.0765477642416954));
#1193=IFCPOLYLOOP((#1189,#1190,#1191,#1192));
#1194=IFCFACEBOUND(#1193,.T.);
#1195=IFCFACE((#1194));
#1196=IFCCARTESIANPOINT((0.130665197968518,0.,0.0765477642416954));
#1197=IFCCARTESIANPOINT((0.130665197968518,0.00200000009499587,0.0765477642416954));
#1198=IFCCARTESIANPOINT((0.129550755023991,0.00200000009499587,0.0729377269744873));
#1199=IFCCARTESIANPOINT((0.129550755023991,0.,0.0729377269744873));
#1200=IFCPOLYLOOP((#1196,#1197,#1198,#1199));
#1201=IFCFACEBOUND(#1200,.T.);
#1202=IFCFACE((#1201));
#1203=IFCCARTESIANPOINT((0.129550755023991,0.,0.0729377269744873));
#1204=IFCCARTESIANPOINT((0.129550755023991,0.00200000009499587,0.0729377269744873));
#1205=IFCCARTESIANPOINT((0.127742573618923,0.00200000009499587,0.0696203634142876));
#1206=IFCCARTESIANPOINT((0.127742573618923,0.,0.0696203634142876));
#1207=IFCPOLYLOOP((#1203,#1204,#1205,#1206));
#1208=IFCFACEBOUND(#1207,.T.);
#1209=IFCFACE((#1208));
#1210=IFCCARTESIANPOINT((0.127742573618923,0.,0.0696203634142876));
#1211=IFCCARTESIANPOINT((0.127742573618923,0.00200000009499587,0.0696203634142876));
#1212=IFCCARTESIANPOINT((0.125312507152592,0.00200000009499587,0.0667274296283722));
#1213=IFCCARTESIANPOINT((0.125312507152592,0.,0.0667274296283722));
#1214=IFCPOLYLOOP((#1210,#1211,#1212,#1213));
#1215=IFCFACEBOUND(#1214,.T.);
#1216=IFCFACE((#1215));
#1217=IFCCARTESIANPOINT((0.0789583325386393,0.00200000009499587,0.126567378640175));
#1218=IFCCARTESIANPOINT((0.0789583325386393,0.,0.126567378640175));
#1219=IFCCARTESIANPOINT((0.104999996721779,0.,0.141602545976639));
#1220=IFCCARTESIANPOINT((0.104999996721779,0.00200000009499587,0.141602545976639));
#1221=IFCPOLYLOOP((#1217,#1218,#1219,#1220));
#1222=IFCFACEBOUND(#1221,.T.);
#1223=IFCFACE((#1222));
#1224=IFCCARTESIANPOINT((0.104999996721779,0.00200000009499587,0.0549999997019768));
#1225=IFCCARTESIANPOINT((0.104999996721779,0.,0.0549999997019768));
#1226=IFCCARTESIANPOINT((0.125312507152592,0.,0.0667274296283722));
#1227=IFCCARTESIANPOINT((0.125312507152592,0.00200000009499587,0.0667274296283722));
#1228=IFCPOLYLOOP((#1224,#1225,#1226,#1227));
#1229=IFCFACEBOUND(#1228,.T.);
#1230=IFCFACE((#1229));
#1231=IFCCARTESIANPOINT((0.0789583325386393,0.00200000009499587,0.172827646136284));
#1232=IFCCARTESIANPOINT((0.0789583325386393,0.,0.172827646136284));
#1233=IFCCARTESIANPOINT((0.0789583325386393,0.,0.126567378640175));
#1234=IFCCARTESIANPOINT((0.0789583325386393,0.00200000009499587,0.126567378640175));
#1235=IFCPOLYLOOP((#1231,#1232,#1233,#1234));
#1236=IFCFACEBOUND(#1235,.T.);
#1237=IFCFACE((#1236));
#1238=IFCCARTESIANPOINT((0.173097327351605,0.,0.157101407647133));
#1239=IFCCARTESIANPOINT((0.168125003576313,0.,0.161689519882202));
#1240=IFCCARTESIANPOINT((0.168125003576313,0.00200000009499587,0.161689519882202));
#1241=IFCCARTESIANPOINT((0.173097327351605,0.00200000009499587,0.157101407647133));
#1242=IFCPOLYLOOP((#1238,#1239,#1240,#1241));
#1243=IFCFACEBOUND(#1242,.T.);
#1244=IFCFACE((#1243));
#1245=IFCCARTESIANPOINT((0.173097327351605,0.,0.157101407647133));
#1246=IFCCARTESIANPOINT((0.173097327351605,0.00200000009499587,0.157101407647133));
#1247=IFCCARTESIANPOINT((0.176859751343762,0.00200000009499587,0.151478335261345));
#1248=IFCCARTESIANPOINT((0.176859751343762,0.,0.151478335261345));
#1249=IFCPOLYLOOP((#1245,#1246,#1247,#1248));
#1250=IFCFACEBOUND(#1249,.T.);
#1251=IFCFACE((#1250));
#1252=IFCCARTESIANPOINT((0.176859751343762,0.,0.151478335261345));
#1253=IFCCARTESIANPOINT((0.176859751343762,0.00200000009499587,0.151478335261345));
#1254=IFCCARTESIANPOINT((0.179203912615811,0.00200000009499587,0.145131692290306));
#1255=IFCCARTESIANPOINT((0.179203912615811,0.,0.145131692290306));
#1256=IFCPOLYLOOP((#1252,#1253,#1254,#1255));
#1257=IFCFACEBOUND(#1256,.T.);
#1258=IFCFACE((#1257));
#1259=IFCCARTESIANPOINT((0.179203912615811,0.,0.145131692290306));
#1260=IFCCARTESIANPOINT((0.179203912615811,0.00200000009499587,0.145131692290306));
#1261=IFCCARTESIANPOINT((0.180000007152592,0.00200000009499587,0.138412982225418));
#1262=IFCCARTESIANPOINT((0.180000007152592,0.,0.138412982225418));
#1263=IFCPOLYLOOP((#1259,#1260,#1261,#1262));
#1264=IFCFACEBOUND(#1263,.T.);
#1265=IFCFACE((#1264));
#1266=IFCCARTESIANPOINT((0.0793348029256213,0.,0.176586985588074));
#1267=IFCCARTESIANPOINT((0.0789583325386393,0.,0.172827646136284));
#1268=IFCCARTESIANPOINT((0.0789583325386393,0.00200000009499587,0.172827646136284));
#1269=IFCCARTESIANPOINT((0.0793348029256213,0.00200000009499587,0.176586985588074));
#1270=IFCPOLYLOOP((#1266,#1267,#1268,#1269));
#1271=IFCFACEBOUND(#1270,.T.);
#1272=IFCFACE((#1271));
#1273=IFCCARTESIANPOINT((0.0793348029256213,0.,0.176586985588074));
#1274=IFCCARTESIANPOINT((0.0793348029256213,0.00200000009499587,0.176586985588074));
#1275=IFCCARTESIANPOINT((0.080449245870148,0.00200000009499587,0.180197030305862));
#1276=IFCCARTESIANPOINT((0.080449245870148,0.,0.180197030305862));
#1277=IFCPOLYLOOP((#1273,#1274,#1275,#1276));
#1278=IFCFACEBOUND(#1277,.T.);
#1279=IFCFACE((#1278));
#1280=IFCCARTESIANPOINT((0.080449245870148,0.,0.180197030305862));
#1281=IFCCARTESIANPOINT((0.080449245870148,0.00200000009499587,0.180197030305862));
#1282=IFCCARTESIANPOINT((0.0822574198246348,0.00200000009499587,0.183514386415482));
#1283=IFCCARTESIANPOINT((0.0822574198246348,0.,0.183514386415482));
#1284=IFCPOLYLOOP((#1280,#1281,#1282,#1283));
#1285=IFCFACEBOUND(#1284,.T.);
#1286=IFCFACE((#1285));
#1287=IFCCARTESIANPOINT((0.180000007152592,0.00200000009499587,0.0983012691140175));
#1288=IFCCARTESIANPOINT((0.131041660904919,0.00200000009499587,0.126567378640175));
#1289=IFCCARTESIANPOINT((0.131041660904919,0.,0.126567378640175));
#1290=IFCCARTESIANPOINT((0.180000007152592,0.,0.0983012691140175));
#1291=IFCPOLYLOOP((#1287,#1288,#1289,#1290));
#1292=IFCFACEBOUND(#1291,.T.);
#1293=IFCFACE((#1292));
#1294=IFCCARTESIANPOINT((0.0299999993294823,0.00200000009499587,0.154833480715752));
#1295=IFCCARTESIANPOINT((0.0789583325386393,0.00200000009499587,0.126567378640175));
#1296=IFCCARTESIANPOINT((0.0789583325386393,0.,0.126567378640175));
#1297=IFCCARTESIANPOINT((0.0299999993294823,0.,0.154833480715752));
#1298=IFCPOLYLOOP((#1294,#1295,#1296,#1297));
#1299=IFCFACEBOUND(#1298,.T.);
#1300=IFCFACE((#1299));
#1301=IFCCLOSEDSHELL((#994,#1012,#1030,#1037,#1070,#1077,#1084,#1091,#1097,#1104,#1111,#1118,#1125,#1132,#1139,#1146,#1153,#1160,#1167,#1174,#1181,#1188,#1195,#1202,#1209,#1216,#1223,#1230,#1237,#1244,#1251,#1258,#1265,#1272,#1279,#1286,#1293,#1300));
#1302=IFCFACETEDBREP(#1301);
#1303=IFCCARTESIANPOINT((0.0299999993294477,0.00100000004749721,0.154833480715752));
#1304=IFCCARTESIANPOINT((0.104999996721745,0.00100000004749721,0.198134750127792));
#1305=IFCCARTESIANPOINT((0.104999996721745,0.00200000009499515,0.198134750127792));
#1306=IFCCARTESIANPOINT((0.0299999993294477,0.00200000009499515,0.154833480715752));
#1307=IFCPOLYLOOP((#1303,#1304,#1305,#1306));
#1308=IFCFACEBOUND(#1307,.T.);
#1309=IFCFACE((#1308));
#1310=IFCCARTESIANPOINT((0.180000007152557,0.00100000004749721,0.0983012691140175));
#1311=IFCCARTESIANPOINT((0.104999996721745,0.00100000004749721,0.0549999997019768));
#1312=IFCCARTESIANPOINT((0.104999996721745,0.00200000009499515,0.0549999997019768));
#1313=IFCCARTESIANPOINT((0.180000007152557,0.00200000009499515,0.0983012691140175));
#1314=IFCPOLYLOOP((#1310,#1311,#1312,#1313));
#1315=IFCFACEBOUND(#1314,.T.);
#1316=IFCFACE((#1315));
#1317=IFCCARTESIANPOINT((0.104999996721745,0.00100000004749721,0.198134750127792));
#1318=IFCCARTESIANPOINT((0.180000007152557,0.00100000004749721,0.154833480715752));
#1319=IFCCARTESIANPOINT((0.180000007152557,0.00200000009499515,0.154833480715752));
#1320=IFCCARTESIANPOINT((0.104999996721745,0.00200000009499515,0.198134750127792));
#1321=IFCPOLYLOOP((#1317,#1318,#1319,#1320));
#1322=IFCFACEBOUND(#1321,.T.);
#1323=IFCFACE((#1322));
#1324=IFCCARTESIANPOINT((0.0299999993294477,0.00100000004749721,0.0983012691140175));
#1325=IFCCARTESIANPOINT((0.0299999993294477,0.00100000004749721,0.154833480715752));
#1326=IFCCARTESIANPOINT((0.0299999993294477,0.00200000009499515,0.154833480715752));
#1327=IFCCARTESIANPOINT((0.0299999993294477,0.00200000009499515,0.0983012691140175));
#1328=IFCPOLYLOOP((#1324,#1325,#1326,#1327));
#1329=IFCFACEBOUND(#1328,.T.);
#1330=IFCFACE((#1329));
#1331=IFCCARTESIANPOINT((0.0299999993294477,0.00200000009499515,0.154833480715752));
#1332=IFCCARTESIANPOINT((0.104999996721745,0.00200000009499515,0.198134750127792));
#1333=IFCCARTESIANPOINT((0.180000007152557,0.00200000009499515,0.154833480715752));
#1334=IFCCARTESIANPOINT((0.180000007152557,0.00200000009499515,0.0983012691140175));
#1335=IFCCARTESIANPOINT((0.104999996721745,0.00200000009499515,0.0549999997019768));
#1336=IFCCARTESIANPOINT((0.0299999993294477,0.00200000009499515,0.0983012691140175));
#1337=IFCPOLYLOOP((#1331,#1332,#1333,#1334,#1335,#1336));
#1338=IFCFACEBOUND(#1337,.T.);
#1339=IFCFACE((#1338));
#1340=IFCCARTESIANPOINT((0.180000007152557,0.00100000004749721,0.154833480715752));
#1341=IFCCARTESIANPOINT((0.180000007152557,0.00100000004749721,0.0983012691140175));
#1342=IFCCARTESIANPOINT((0.180000007152557,0.00200000009499515,0.0983012691140175));
#1343=IFCCARTESIANPOINT((0.180000007152557,0.00200000009499515,0.154833480715752));
#1344=IFCPOLYLOOP((#1340,#1341,#1342,#1343));
#1345=IFCFACEBOUND(#1344,.T.);
#1346=IFCFACE((#1345));
#1347=IFCCARTESIANPOINT((0.0299999993294477,0.00100000004749721,0.154833480715752));
#1348=IFCCARTESIANPOINT((0.0299999993294477,0.00100000004749721,0.0983012691140175));
#1349=IFCCARTESIANPOINT((0.104999996721745,0.00100000004749721,0.0549999997019768));
#1350=IFCCARTESIANPOINT((0.180000007152557,0.00100000004749721,0.0983012691140175));
#1351=IFCCARTESIANPOINT((0.180000007152557,0.00100000004749721,0.154833480715752));
#1352=IFCCARTESIANPOINT((0.104999996721745,0.00100000004749721,0.198134750127792));
#1353=IFCPOLYLOOP((#1347,#1348,#1349,#1350,#1351,#1352));
#1354=IFCFACEBOUND(#1353,.T.);
#1355=IFCFACE((#1354));
#1356=IFCCARTESIANPOINT((0.104999996721745,0.00100000004749721,0.0549999997019768));
#1357=IFCCARTESIANPOINT((0.0299999993294477,0.00100000004749721,0.0983012691140175));
#1358=IFCCARTESIANPOINT((0.0299999993294477,0.00200000009499515,0.0983012691140175));
#1359=IFCCARTESIANPOINT((0.104999996721745,0.00200000009499515,0.0549999997019768));
#1360=IFCPOLYLOOP((#1356,#1357,#1358,#1359));
#1361=IFCFACEBOUND(#1360,.T.);
#1362=IFCFACE((#1361));
#1363=IFCCLOSEDSHELL((#1309,#1316,#1323,#1330,#1339,#1346,#1355,#1362));
#1364=IFCFACETEDBREP(#1363);
#1365=IFCCOLOURRGB($,0.345098039215686,0.619607843137255,0.650980392156863);
#1366=IFCSURFACESTYLERENDERING(#1365,0.,$,$,$,$,$,$,.NOTDEFINED.);
#1367=IFCSURFACESTYLE($,.BOTH.,(#1366));
#1368=IFCPRESENTATIONSTYLEASSIGNMENT((#1367));
#1369=IFCSTYLEDITEM(#85,(#1368),$);
#1370=IFCCOLOURRGB($,0.0470588235294118,0.149019607843137,0.349019607843137);
#1371=IFCSURFACESTYLERENDERING(#1370,0.,$,$,$,$,$,$,.NOTDEFINED.);
#1372=IFCSURFACESTYLE($,.BOTH.,(#1371));
#1373=IFCPRESENTATIONSTYLEASSIGNMENT((#1372));
#1374=IFCSTYLEDITEM(#129,(#1373),$);
#1375=IFCCOLOURRGB($,0.949019607843137,0.56078431372549,0.219607843137255);
#1376=IFCSURFACESTYLERENDERING(#1375,0.,$,$,$,$,$,$,.NOTDEFINED.);
#1377=IFCSURFACESTYLE($,.BOTH.,(#1376));
#1378=IFCPRESENTATIONSTYLEASSIGNMENT((#1377));
#1379=IFCSTYLEDITEM(#173,(#1378),$);
#1380=IFCSTYLEDITEM(#289,(#1373),$);
#1381=IFCSTYLEDITEM(#711,(#1373),$);
#1382=IFCSTYLEDITEM(#809,(#1373),$);
#1383=IFCSTYLEDITEM(#988,(#1373),$);
#1384=IFCSTYLEDITEM(#1302,(#1373),$);
#1385=IFCCOLOURRGB($,1.,1.,1.);
#1386=IFCSURFACESTYLERENDERING(#1385,0.,$,$,$,$,$,$,.NOTDEFINED.);
#1387=IFCSURFACESTYLE($,.BOTH.,(#1386));
#1388=IFCPRESENTATIONSTYLEASSIGNMENT((#1387));
#1389=IFCSTYLEDITEM(#1364,(#1388),$);
#1390=IFCSHAPEREPRESENTATION(#11,'Body','Brep',(#85,#129,#173,#289,#711,#809,#988,#1302,#1364));
#1391=IFCCARTESIANPOINT((-0.,-0.,0.));
#1392=IFCDIRECTION((0.,0.,1.));
#1393=IFCDIRECTION((0.637921483011472,0.770101409888622,0.));
#1394=IFCAXIS2PLACEMENT3D(#1391,#1392,#1393);
#1395=IFCLOCALPLACEMENT(#37,#1394);
#1396=IFCPRODUCTDEFINITIONSHAPE($,$,(#1390));
#1397=IFCBUILDINGELEMENTPROXY('2TVGYYDe14IxwX$c$n2BJy',#5,'GEO-Nulpunt',$,'nulpunt:nulpunt',#1395,#1396,$,$);
#1398=IFCPROPERTYSINGLEVALUE('RD-Y',$,IFCTEXT('384156.389'),$);
#1399=IFCPROPERTYSINGLEVALUE('RD-X',$,IFCTEXT('160071.588'),$);
#1400=IFCPROPERTYSINGLEVALUE('Latitude',$,IFCTEXT('51.44647491'),$);
#1401=IFCPROPERTYSINGLEVALUE('Longitude',$,IFCTEXT('5.46015425'),$);
#1402=IFCPROPERTYSET('0hMROXG0f5me_f_Wrp3cYs',#5,'CPset_GEO-Nulpunt',$,(#1398,#1399,#1400,#1401));
#1403=IFCRELDEFINESBYPROPERTIES('07DKfwLT14rvCTYVNnITBD',#5,$,$,(#1397),#1402);
#1404=IFCRELCONTAINEDINSPATIALSTRUCTURE('1iP5MZwg11guPyDQAeOYqe',#5,'Building Storey Container',$,(#1397),#38);
#1405=IFCMATERIAL('GEO-Nulpunt');
#1406=IFCRELASSOCIATESMATERIAL('0QjiWKGXL0FP7lg4kIj0sM',#5,$,$,(#1397),#1405);
#1407=IFCPRESENTATIONLAYERASSIGNMENT('GEO-Nulpunt',$,(#1390),$);
ENDSEC;
END-ISO-10303-21;
